<svg width="16" height="16" viewBox="0 0 16 16" fill="none" xmlns="http://www.w3.org/2000/svg">
<path d="M14.2934 7.36645L8.1667 13.4931C7.41613 14.2437 6.39815 14.6653 5.3367 14.6653C4.27524 14.6653 3.25726 14.2437 2.5067 13.4931C1.75613 12.7425 1.33447 11.7246 1.33447 10.6631C1.33447 9.60166 1.75613 8.58367 2.5067 7.83311L8.22003 2.11978C8.72041 1.61852 9.39941 1.33656 10.1077 1.33594C10.8159 1.33531 11.4954 1.61607 11.9967 2.11645C12.498 2.61682 12.7799 3.29583 12.7805 4.00409C12.7812 4.71235 12.5004 5.39185 12 5.89311L6.27336 11.6064C6.02318 11.8566 5.68385 11.9972 5.33003 11.9972C4.97621 11.9972 4.63688 11.8566 4.3867 11.6064C4.13651 11.3563 3.99596 11.0169 3.99596 10.6631C3.99596 10.3093 4.13651 9.96997 4.3867 9.71978L10.0467 4.06645" stroke="#627084" stroke-width="1.33333" stroke-linecap="round" stroke-linejoin="round"/>
</svg>
