<svg width="20" height="20" viewBox="0 0 20 20" fill="none" xmlns="http://www.w3.org/2000/svg">
<path d="M8.33301 8.33398V8.50065C8.87953 8.71082 9.33494 9.10616 9.61982 9.61772C9.90471 10.1293 10.001 10.7246 9.89189 11.2999C9.78278 11.8752 9.47521 12.3939 9.0228 12.7656C8.5704 13.1374 8.00186 13.3385 7.41634 13.334H4.16634C3.58781 13.3196 3.0322 13.1049 2.59426 12.7266C2.15633 12.3483 1.8632 11.8298 1.76487 11.2595C1.66654 10.6892 1.76911 10.1025 2.05508 9.59938C2.34105 9.09627 2.7927 8.70795 3.33301 8.50065V8.33398C3.33301 7.67094 3.5964 7.03506 4.06524 6.56622C4.53408 6.09738 5.16996 5.83398 5.83301 5.83398C6.49605 5.83398 7.13193 6.09738 7.60077 6.56622C8.06961 7.03506 8.33301 7.67094 8.33301 8.33398Z" stroke="#676F7E" stroke-width="1.66667" stroke-linecap="round" stroke-linejoin="round"/>
<path d="M5.83301 13.334V18.334" stroke="#676F7E" stroke-width="1.66667" stroke-linecap="round" stroke-linejoin="round"/>
<path d="M10.833 15.834V18.334" stroke="#676F7E" stroke-width="1.66667" stroke-linecap="round" stroke-linejoin="round"/>
<path d="M10.0003 15.8333H16.917C17.0801 15.831 17.2389 15.7809 17.3738 15.6892C17.5087 15.5975 17.6137 15.4682 17.6759 15.3174C17.738 15.1665 17.7544 15.0008 17.7232 14.8407C17.692 14.6806 17.6145 14.5331 17.5003 14.4167L15.0003 11.6667H15.2503C15.4134 11.6644 15.5723 11.6143 15.7072 11.5225C15.8421 11.4308 15.9471 11.3015 16.0092 11.1507C16.0713 10.9999 16.0878 10.8341 16.0566 10.674C16.0254 10.5139 15.9479 10.3665 15.8337 10.25L13.3337 7.5H13.5003C13.6705 7.51535 13.8414 7.478 13.9896 7.39301C14.1379 7.30802 14.2564 7.1795 14.3292 7.02487C14.402 6.87023 14.4254 6.69696 14.3964 6.52854C14.3674 6.36013 14.2873 6.2047 14.167 6.08333L10.8337 2.5L9.66699 3.75" stroke="#676F7E" stroke-width="1.66667" stroke-linecap="round" stroke-linejoin="round"/>
</svg>
