<svg width="20" height="20" viewBox="0 0 20 20" fill="none" xmlns="http://www.w3.org/2000/svg">
<path d="M8.33268 3.33398L6.66602 5.00065" stroke="#6B7280" stroke-width="1.66667" stroke-linecap="round" stroke-linejoin="round"/>
<path d="M14.166 15.834V17.5007" stroke="#6B7280" stroke-width="1.66667" stroke-linecap="round" stroke-linejoin="round"/>
<path d="M1.66602 10H18.3327" stroke="#6B7280" stroke-width="1.66667" stroke-linecap="round" stroke-linejoin="round"/>
<path d="M5.83398 15.834V17.5007" stroke="#6B7280" stroke-width="1.66667" stroke-linecap="round" stroke-linejoin="round"/>
<path d="M7.50065 4.16585L6.35148 3.01668C6.1105 2.77457 5.80451 2.60749 5.47055 2.53564C5.13659 2.46378 4.78896 2.49025 4.46973 2.61182C4.15049 2.7334 3.87333 2.94488 3.67176 3.22068C3.4702 3.49647 3.35288 3.82477 3.33398 4.16585V14.1659C3.33398 14.6079 3.50958 15.0318 3.82214 15.3444C4.1347 15.6569 4.55862 15.8325 5.00065 15.8325H15.0007C15.4427 15.8325 15.8666 15.6569 16.1792 15.3444C16.4917 15.0318 16.6673 14.6079 16.6673 14.1659V9.99918" stroke="#6B7280" stroke-width="1.66667" stroke-linecap="round" stroke-linejoin="round"/>
</svg>
