<svg width="20" height="20" viewBox="0 0 20 20" fill="none" xmlns="http://www.w3.org/2000/svg">
<path d="M16.6673 7.50065V5.00065C16.6673 4.55862 16.4917 4.1347 16.1792 3.82214C15.8666 3.50958 15.4427 3.33398 15.0007 3.33398H5.00065C4.55862 3.33398 4.1347 3.50958 3.82214 3.82214C3.50958 4.1347 3.33398 4.55862 3.33398 5.00065V7.50065" stroke="#6B7280" stroke-width="1.66667" stroke-linecap="round" stroke-linejoin="round"/>
<path d="M1.66602 13.3333C1.66602 13.7754 1.84161 14.1993 2.15417 14.5118C2.46673 14.8244 2.89065 15 3.33268 15H16.666C17.108 15 17.532 14.8244 17.8445 14.5118C18.1571 14.1993 18.3327 13.7754 18.3327 13.3333V9.16667C18.3327 8.72464 18.1571 8.30072 17.8445 7.98816C17.532 7.6756 17.108 7.5 16.666 7.5C16.224 7.5 15.8001 7.6756 15.4875 7.98816C15.1749 8.30072 14.9993 8.72464 14.9993 9.16667V10.4167C14.9993 10.5272 14.9555 10.6332 14.8773 10.7113C14.7992 10.7894 14.6932 10.8333 14.5827 10.8333H5.41602C5.30551 10.8333 5.19953 10.7894 5.12139 10.7113C5.04325 10.6332 4.99935 10.5272 4.99935 10.4167V9.16667C4.99935 8.72464 4.82375 8.30072 4.51119 7.98816C4.19863 7.6756 3.77471 7.5 3.33268 7.5C2.89065 7.5 2.46673 7.6756 2.15417 7.98816C1.84161 8.30072 1.66602 8.72464 1.66602 9.16667V13.3333Z" stroke="#6B7280" stroke-width="1.66667" stroke-linecap="round" stroke-linejoin="round"/>
<path d="M3.33398 15V16.6667" stroke="#6B7280" stroke-width="1.66667" stroke-linecap="round" stroke-linejoin="round"/>
<path d="M16.666 15V16.6667" stroke="#6B7280" stroke-width="1.66667" stroke-linecap="round" stroke-linejoin="round"/>
<path d="M10 3.33398V10.834" stroke="#6B7280" stroke-width="1.66667" stroke-linecap="round" stroke-linejoin="round"/>
</svg>
