<svg width="16" height="16" viewBox="0 0 16 16" fill="none" xmlns="http://www.w3.org/2000/svg">
<path d="M1.3335 13.3332V7.99984C1.3335 7.64622 1.47397 7.30708 1.72402 7.05703C1.97407 6.80698 2.31321 6.6665 2.66683 6.6665H13.3335C13.6871 6.6665 14.0263 6.80698 14.2763 7.05703C14.5264 7.30708 14.6668 7.64622 14.6668 7.99984V13.3332" stroke="#6C7C93" stroke-width="1.33333" stroke-linecap="round" stroke-linejoin="round"/>
<path d="M2.6665 6.6665V3.99984C2.6665 3.64622 2.80698 3.30708 3.05703 3.05703C3.30708 2.80698 3.64622 2.6665 3.99984 2.6665H11.9998C12.3535 2.6665 12.6926 2.80698 12.9426 3.05703C13.1927 3.30708 13.3332 3.64622 13.3332 3.99984V6.6665" stroke="#6C7C93" stroke-width="1.33333" stroke-linecap="round" stroke-linejoin="round"/>
<path d="M8 2.6665V6.6665" stroke="#6C7C93" stroke-width="1.33333" stroke-linecap="round" stroke-linejoin="round"/>
<path d="M1.3335 12H14.6668" stroke="#6C7C93" stroke-width="1.33333" stroke-linecap="round" stroke-linejoin="round"/>
</svg>
