<svg width="10" height="12" viewBox="0 0 10 12" fill="none" xmlns="http://www.w3.org/2000/svg">
<path d="M0.666992 5.99984H6.66699C7.37424 5.99984 8.05251 6.28079 8.55261 6.78089C9.05271 7.28098 9.33366 7.95926 9.33366 8.6665C9.33366 9.37375 9.05271 10.052 8.55261 10.5521C8.05251 11.0522 7.37424 11.3332 6.66699 11.3332H1.33366C1.15685 11.3332 0.987279 11.2629 0.862254 11.1379C0.73723 11.0129 0.666992 10.8433 0.666992 10.6665V1.33317C0.666992 1.15636 0.73723 0.98679 0.862254 0.861766C0.987279 0.736742 1.15685 0.666504 1.33366 0.666504H6.00033C6.70757 0.666504 7.38585 0.947455 7.88594 1.44755C8.38604 1.94765 8.66699 2.62593 8.66699 3.33317C8.66699 4.04041 8.38604 4.71869 7.88594 5.21879C7.38585 5.71889 6.70757 5.99984 6.00033 5.99984" stroke="#737373" stroke-width="1.33333" stroke-linecap="round" stroke-linejoin="round"/>
</svg>
