<svg width="32" height="32" viewBox="0 0 32 32" fill="none" xmlns="http://www.w3.org/2000/svg">
<path d="M19.3332 5.3335H12.6665L9.33317 9.3335H5.33317C4.62593 9.3335 3.94765 9.61445 3.44755 10.1145C2.94746 10.6146 2.6665 11.2929 2.6665 12.0002V24.0002C2.6665 24.7074 2.94746 25.3857 3.44755 25.8858C3.94765 26.3859 4.62593 26.6668 5.33317 26.6668H26.6665C27.3737 26.6668 28.052 26.3859 28.5521 25.8858C29.0522 25.3857 29.3332 24.7074 29.3332 24.0002V12.0002C29.3332 11.2929 29.0522 10.6146 28.5521 10.1145C28.052 9.61445 27.3737 9.3335 26.6665 9.3335H22.6665L19.3332 5.3335Z" stroke="#0D8CFF" stroke-width="2.66667" stroke-linecap="round" stroke-linejoin="round"/>
<path d="M16 21.3335C18.2091 21.3335 20 19.5426 20 17.3335C20 15.1244 18.2091 13.3335 16 13.3335C13.7909 13.3335 12 15.1244 12 17.3335C12 19.5426 13.7909 21.3335 16 21.3335Z" stroke="#0D8CFF" stroke-width="2.66667" stroke-linecap="round" stroke-linejoin="round"/>
</svg>
