<svg width="28" height="28" viewBox="0 0 28 28" fill="none" xmlns="http://www.w3.org/2000/svg">
<path d="M16.9173 4.66699H11.084L8.16732 8.16699H4.66732C4.04848 8.16699 3.45499 8.41282 3.0174 8.85041C2.57982 9.28799 2.33398 9.88149 2.33398 10.5003V21.0003C2.33398 21.6192 2.57982 22.2127 3.0174 22.6502C3.45499 23.0878 4.04848 23.3337 4.66732 23.3337H23.334C23.9528 23.3337 24.5463 23.0878 24.9839 22.6502C25.4215 22.2127 25.6673 21.6192 25.6673 21.0003V10.5003C25.6673 9.88149 25.4215 9.28799 24.9839 8.85041C24.5463 8.41282 23.9528 8.16699 23.334 8.16699H19.834L16.9173 4.66699Z" stroke="#FE7B02" stroke-width="2.33333" stroke-linecap="round" stroke-linejoin="round"/>
<path d="M14 18.667C15.933 18.667 17.5 17.1 17.5 15.167C17.5 13.234 15.933 11.667 14 11.667C12.067 11.667 10.5 13.234 10.5 15.167C10.5 17.1 12.067 18.667 14 18.667Z" stroke="#FE7B02" stroke-width="2.33333" stroke-linecap="round" stroke-linejoin="round"/>
</svg>
