<svg width="16" height="16" viewBox="0 0 16 16" fill="none" xmlns="http://www.w3.org/2000/svg">
<path d="M9.66732 2.66602H6.33398L4.66732 4.66602H2.66732C2.3137 4.66602 1.97456 4.80649 1.72451 5.05654C1.47446 5.30659 1.33398 5.64573 1.33398 5.99935V11.9993C1.33398 12.353 1.47446 12.6921 1.72451 12.9422C1.97456 13.1922 2.3137 13.3327 2.66732 13.3327H13.334C13.6876 13.3327 14.0267 13.1922 14.2768 12.9422C14.5268 12.6921 14.6673 12.353 14.6673 11.9993V5.99935C14.6673 5.64573 14.5268 5.30659 14.2768 5.05654C14.0267 4.80649 13.6876 4.66602 13.334 4.66602H11.334L9.66732 2.66602Z" stroke="#14181F" stroke-width="1.33333" stroke-linecap="round" stroke-linejoin="round"/>
<path d="M8 10.666C9.10457 10.666 10 9.77059 10 8.66602C10 7.56145 9.10457 6.66602 8 6.66602C6.89543 6.66602 6 7.56145 6 8.66602C6 9.77059 6.89543 10.666 8 10.666Z" stroke="#14181F" stroke-width="1.33333" stroke-linecap="round" stroke-linejoin="round"/>
</svg>
