<svg width="16" height="16" viewBox="0 0 16 16" fill="none" xmlns="http://www.w3.org/2000/svg">
<path d="M14.2799 7.28222C14.3992 7.22957 14.5005 7.14307 14.5712 7.03343C14.6418 6.92378 14.6788 6.79582 14.6774 6.66538C14.6761 6.53495 14.6365 6.40777 14.5636 6.29961C14.4907 6.19145 14.3876 6.10706 14.2672 6.05689L8.5532 3.45422C8.37949 3.37499 8.19079 3.33398 7.99987 3.33398C7.80894 3.33398 7.62024 3.37499 7.44653 3.45422L1.7332 6.05422C1.61451 6.1062 1.51354 6.19165 1.44264 6.3001C1.37174 6.40855 1.33398 6.53532 1.33398 6.66489C1.33398 6.79446 1.37174 6.92123 1.44264 7.02968C1.51354 7.13813 1.61451 7.22357 1.7332 7.27556L7.44653 9.88089C7.62024 9.96012 7.80894 10.0011 7.99987 10.0011C8.19079 10.0011 8.37949 9.96012 8.5532 9.88089L14.2799 7.28222Z" stroke="#6B7280" stroke-width="1.33333" stroke-linecap="round" stroke-linejoin="round"/>
<path d="M14.667 6.66602V10.666" stroke="#6B7280" stroke-width="1.33333" stroke-linecap="round" stroke-linejoin="round"/>
<path d="M4 8.33398V10.6673C4 11.1978 4.42143 11.7065 5.17157 12.0815C5.92172 12.4566 6.93913 12.6673 8 12.6673C9.06087 12.6673 10.0783 12.4566 10.8284 12.0815C11.5786 11.7065 12 11.1978 12 10.6673V8.33398" stroke="#6B7280" stroke-width="1.33333" stroke-linecap="round" stroke-linejoin="round"/>
</svg>
