<svg width="140" height="140" viewBox="0 0 140 140" fill="none" xmlns="http://www.w3.org/2000/svg">
<rect x="8" y="4" width="128" height="128" rx="64" fill="#313331" fill-opacity="0.1"/>
<rect x="16" y="12" width="112" height="112" rx="56" fill="#0A91FF" fill-opacity="0.1"/>
<path d="M71.9999 94.6666C86.7275 94.6666 98.6666 82.7275 98.6666 67.9999C98.6666 53.2723 86.7275 41.3333 71.9999 41.3333C57.2723 41.3333 45.3333 53.2723 45.3333 67.9999C45.3333 82.7275 57.2723 94.6666 71.9999 94.6666Z" stroke="#0D8CFF" stroke-width="4" stroke-linecap="round" stroke-linejoin="round"/>
<path d="M64 68.0001L69.3333 73.3334L80 62.6667" stroke="#0D8CFF" stroke-width="4" stroke-linecap="round" stroke-linejoin="round"/>
<path d="M125.937 15.5C125.848 15.1539 125.667 14.8381 125.415 14.5854C125.162 14.3327 124.846 14.1523 124.5 14.063L118.365 12.481C118.26 12.4513 118.168 12.3883 118.103 12.3014C118.037 12.2146 118.001 12.1088 118.001 12C118.001 11.8912 118.037 11.7854 118.103 11.6986C118.168 11.6118 118.26 11.5487 118.365 11.519L124.5 9.93601C124.846 9.84681 125.162 9.66658 125.414 9.41404C125.667 9.16151 125.848 8.84589 125.937 8.50001L127.519 2.36501C127.548 2.25992 127.611 2.16735 127.698 2.1014C127.785 2.03545 127.891 1.99976 128 1.99976C128.11 1.99976 128.216 2.03545 128.303 2.1014C128.39 2.16735 128.453 2.25992 128.482 2.36501L130.063 8.50001C130.152 8.84608 130.333 9.1619 130.585 9.41462C130.838 9.66734 131.154 9.84773 131.5 9.93701L137.635 11.518C137.74 11.5471 137.833 11.61 137.9 11.6971C137.966 11.7841 138.002 11.8906 138.002 12C138.002 12.1094 137.966 12.2159 137.9 12.3029C137.833 12.39 137.74 12.4529 137.635 12.482L131.5 14.063C131.154 14.1523 130.838 14.3327 130.585 14.5854C130.333 14.8381 130.152 15.1539 130.063 15.5L128.481 21.635C128.452 21.7401 128.389 21.8327 128.302 21.8986C128.215 21.9646 128.109 22.0003 127.999 22.0003C127.89 22.0003 127.784 21.9646 127.697 21.8986C127.61 21.8327 127.547 21.7401 127.518 21.635L125.937 15.5Z" stroke="#0D8CFF" stroke-width="2" stroke-linecap="round" stroke-linejoin="round"/>
<path d="M136 3V7" stroke="#0D8CFF" stroke-width="2" stroke-linecap="round" stroke-linejoin="round"/>
<path d="M138 5H134" stroke="#0D8CFF" stroke-width="2" stroke-linecap="round" stroke-linejoin="round"/>
<path d="M120 17V19" stroke="#0D8CFF" stroke-width="2" stroke-linecap="round" stroke-linejoin="round"/>
<path d="M121 18H119" stroke="#0D8CFF" stroke-width="2" stroke-linecap="round" stroke-linejoin="round"/>
<path d="M8.28086 132.917C8.20647 132.628 8.05615 132.365 7.84555 132.155C7.63494 131.944 7.37176 131.794 7.08336 131.719L1.97086 130.401C1.88364 130.376 1.80687 130.324 1.75221 130.251C1.69754 130.179 1.66797 130.091 1.66797 130C1.66797 129.909 1.69754 129.821 1.75221 129.749C1.80687 129.677 1.88364 129.624 1.97086 129.599L7.08336 128.28C7.37166 128.206 7.63477 128.056 7.84537 127.845C8.05596 127.635 8.20634 127.372 8.28086 127.083L9.5992 121.971C9.6237 121.883 9.67618 121.806 9.74863 121.751C9.82108 121.696 9.90951 121.667 10.0004 121.667C10.0914 121.667 10.1798 121.696 10.2523 121.751C10.3247 121.806 10.3772 121.883 10.4017 121.971L11.7192 127.083C11.7936 127.372 11.9439 127.635 12.1545 127.846C12.3651 128.056 12.6283 128.206 12.9167 128.281L18.0292 129.598C18.1171 129.623 18.1946 129.675 18.2499 129.748C18.3052 129.82 18.3351 129.909 18.3351 130C18.3351 130.091 18.3052 130.18 18.2499 130.252C18.1946 130.325 18.1171 130.377 18.0292 130.402L12.9167 131.719C12.6283 131.794 12.3651 131.944 12.1545 132.155C11.9439 132.365 11.7936 132.628 11.7192 132.917L10.4009 138.029C10.3764 138.117 10.3239 138.194 10.2514 138.249C10.179 138.304 10.0905 138.334 9.99961 138.334C9.90868 138.334 9.82025 138.304 9.7478 138.249C9.67535 138.194 9.62287 138.117 9.59836 138.029L8.28086 132.917Z" stroke="#0D8CFF" stroke-width="1.66667" stroke-linecap="round" stroke-linejoin="round"/>
<path d="M16.6667 122.5V125.833" stroke="#0D8CFF" stroke-width="1.66667" stroke-linecap="round" stroke-linejoin="round"/>
<path d="M18.3333 124.167H15" stroke="#0D8CFF" stroke-width="1.66667" stroke-linecap="round" stroke-linejoin="round"/>
<path d="M3.33325 134.167V135.833" stroke="#0D8CFF" stroke-width="1.66667" stroke-linecap="round" stroke-linejoin="round"/>
<path d="M4.16667 135H2.5" stroke="#0D8CFF" stroke-width="1.66667" stroke-linecap="round" stroke-linejoin="round"/>
</svg>
