<svg width="16" height="16" viewBox="0 0 16 16" fill="none" xmlns="http://www.w3.org/2000/svg">
<path d="M6.66699 1.33301V2.66634" stroke="#737373" stroke-width="1.33333" stroke-linecap="round" stroke-linejoin="round"/>
<path d="M9.33301 1.33301V2.66634" stroke="#737373" stroke-width="1.33333" stroke-linecap="round" stroke-linejoin="round"/>
<path d="M10.6667 5.33301C10.8435 5.33301 11.013 5.40325 11.1381 5.52827C11.2631 5.65329 11.3333 5.82286 11.3333 5.99967V11.333C11.3333 12.0403 11.0524 12.7185 10.5523 13.2186C10.0522 13.7187 9.37391 13.9997 8.66667 13.9997H4.66667C3.95942 13.9997 3.28115 13.7187 2.78105 13.2186C2.28095 12.7185 2 12.0403 2 11.333V5.99967C2 5.82286 2.07024 5.65329 2.19526 5.52827C2.32029 5.40325 2.48986 5.33301 2.66667 5.33301H12C12.7072 5.33301 13.3855 5.61396 13.8856 6.11406C14.3857 6.61415 14.6667 7.29243 14.6667 7.99967C14.6667 8.70692 14.3857 9.3852 13.8856 9.88529C13.3855 10.3854 12.7072 10.6663 12 10.6663H11.3333" stroke="#737373" stroke-width="1.33333" stroke-linecap="round" stroke-linejoin="round"/>
<path d="M4 1.33301V2.66634" stroke="#737373" stroke-width="1.33333" stroke-linecap="round" stroke-linejoin="round"/>
</svg>
