<svg width="20" height="20" viewBox="0 0 20 20" fill="none" xmlns="http://www.w3.org/2000/svg">
<path d="M3.33301 1.66699V18.3337L4.99967 17.5003L6.66634 18.3337L8.33301 17.5003L9.99967 18.3337L11.6663 17.5003L13.333 18.3337L14.9997 17.5003L16.6663 18.3337V1.66699L14.9997 2.50033L13.333 1.66699L11.6663 2.50033L9.99967 1.66699L8.33301 2.50033L6.66634 1.66699L4.99967 2.50033L3.33301 1.66699Z" stroke="#0D8CFF" stroke-width="1.66667" stroke-linecap="round" stroke-linejoin="round"/>
<path d="M13.3337 6.66699H8.33366C7.89163 6.66699 7.46771 6.84259 7.15515 7.15515C6.84259 7.46771 6.66699 7.89163 6.66699 8.33366C6.66699 8.77569 6.84259 9.19961 7.15515 9.51217C7.46771 9.82473 7.89163 10.0003 8.33366 10.0003H11.667C12.109 10.0003 12.5329 10.1759 12.8455 10.4885C13.1581 10.801 13.3337 11.225 13.3337 11.667C13.3337 12.109 13.1581 12.5329 12.8455 12.8455C12.5329 13.1581 12.109 13.3337 11.667 13.3337H6.66699" stroke="#0D8CFF" stroke-width="1.66667" stroke-linecap="round" stroke-linejoin="round"/>
<path d="M10 14.5837V5.41699" stroke="#0D8CFF" stroke-width="1.66667" stroke-linecap="round" stroke-linejoin="round"/>
</svg>
