<svg width="24" height="24" viewBox="0 0 24 24" fill="none" xmlns="http://www.w3.org/2000/svg">
<path d="M11.5614 3.26568C11.6046 3.18729 11.668 3.12191 11.7451 3.07638C11.8221 3.03085 11.91 3.00684 11.9994 3.00684C12.0889 3.00684 12.1768 3.03085 12.2538 3.07638C12.3309 3.12191 12.3943 3.18729 12.4374 3.26568L15.3894 8.86968C15.4598 8.99944 15.5581 9.11201 15.6772 9.1993C15.7962 9.28659 15.9331 9.34643 16.078 9.37454C16.223 9.40265 16.3723 9.39831 16.5154 9.36186C16.6584 9.3254 16.7916 9.25772 16.9054 9.16368L21.1824 5.49968C21.2646 5.4329 21.3657 5.3939 21.4714 5.38828C21.5771 5.38266 21.6818 5.41073 21.7705 5.46843C21.8593 5.52613 21.9274 5.61049 21.9651 5.70937C22.0028 5.80825 22.0082 5.91655 21.9804 6.01868L19.1464 16.2647C19.0886 16.4743 18.964 16.6594 18.7915 16.7919C18.6189 16.9243 18.4079 16.9969 18.1904 16.9987H5.80945C5.59178 16.9972 5.38056 16.9247 5.20784 16.7922C5.03512 16.6597 4.91034 16.4745 4.85245 16.2647L2.01945 6.01968C1.9917 5.91755 1.99707 5.80925 2.03479 5.71037C2.07251 5.61149 2.14063 5.52713 2.22935 5.46943C2.31807 5.41173 2.42281 5.38366 2.52849 5.38928C2.63417 5.3949 2.73534 5.4339 2.81745 5.50068L7.09345 9.16468C7.20725 9.25872 7.34046 9.3264 7.48351 9.36286C7.62657 9.39931 7.77592 9.40365 7.92085 9.37554C8.06578 9.34743 8.20268 9.28759 8.32174 9.2003C8.4408 9.11301 8.53905 9.00044 8.60945 8.87068L11.5614 3.26568Z" stroke="#6B26D9" stroke-width="2" stroke-linecap="round" stroke-linejoin="round"/>
<path d="M5 21H19" stroke="#6B26D9" stroke-width="2" stroke-linecap="round" stroke-linejoin="round"/>
</svg>
