<svg width="16" height="16" viewBox="0 0 16 16" fill="none" xmlns="http://www.w3.org/2000/svg">
<path d="M11.3334 9.33333L13.3334 11.5333C13.4247 11.6265 13.4867 11.7445 13.5117 11.8725C13.5367 12.0006 13.5235 12.1332 13.4738 12.2539C13.4241 12.3746 13.3401 12.478 13.2322 12.5514C13.1243 12.6247 12.9972 12.6648 12.8667 12.6667H3.13338C3.00289 12.6648 2.87582 12.6247 2.7679 12.5514C2.65998 12.478 2.57598 12.3746 2.52629 12.2539C2.4766 12.1332 2.46342 12.0006 2.48838 11.8725C2.51335 11.7445 2.57535 11.6265 2.66671 11.5333L4.66671 9.33333H4.46671C4.33623 9.3315 4.20915 9.29141 4.10123 9.21804C3.99332 9.14467 3.90931 9.04123 3.85962 8.92057C3.80994 8.7999 3.79676 8.6673 3.82172 8.53921C3.84668 8.41113 3.90868 8.29318 4.00004 8.2L6.00004 6H5.86671C5.73054 6.01228 5.59389 5.9824 5.47528 5.91441C5.35666 5.84642 5.26182 5.7436 5.2036 5.61989C5.14539 5.49619 5.12661 5.35757 5.14983 5.22284C5.17304 5.0881 5.23712 4.96376 5.33338 4.86667L8.00004 2L10.6667 4.86667C10.763 4.96376 10.827 5.0881 10.8503 5.22284C10.8735 5.35757 10.8547 5.49619 10.7965 5.61989C10.7383 5.7436 10.6434 5.84642 10.5248 5.91441C10.4062 5.9824 10.2695 6.01228 10.1334 6H10L12 8.2C12.0914 8.29318 12.1534 8.41113 12.1784 8.53921C12.2033 8.6673 12.1902 8.7999 12.1405 8.92057C12.0908 9.04123 12.0068 9.14467 11.8989 9.21804C11.7909 9.29141 11.6639 9.3315 11.5334 9.33333H11.3334Z" stroke="#6C7C93" stroke-width="1.33333" stroke-linecap="round" stroke-linejoin="round"/>
<path d="M8 14.667V12.667" stroke="#6C7C93" stroke-width="1.33333" stroke-linecap="round" stroke-linejoin="round"/>
</svg>
