<svg width="18" height="12" viewBox="0 0 18 12" fill="none" xmlns="http://www.w3.org/2000/svg">
<path fill-rule="evenodd" clip-rule="evenodd" d="M16.6296 6.33112C15.0737 9.12519 12.123 10.8609 8.93056 10.8609C5.73606 10.8609 2.78541 9.12519 1.22947 6.33112C1.10964 6.11416 1.10964 5.88482 1.22947 5.66805C2.78541 2.87402 5.73606 1.13852 8.93056 1.13852C12.123 1.13852 15.0736 2.87402 16.6296 5.66805C16.7515 5.88482 16.7515 6.11416 16.6296 6.33112ZM17.6235 5.11408C15.8671 1.95946 12.5363 0 8.93056 0C5.32279 0 1.99192 1.95946 0.23556 5.11408C-0.0785199 5.67693 -0.0785199 6.32223 0.23556 6.88467C1.99192 10.0393 5.32279 11.9992 8.93056 11.9992C12.5363 11.9992 15.8671 10.0393 17.6235 6.88467C17.9376 6.32227 17.9376 5.67693 17.6235 5.11408ZM8.93056 8.33501C10.2179 8.33501 11.2655 7.2874 11.2655 5.99949C11.2655 4.71157 10.2179 3.66396 8.93056 3.66396C7.64118 3.66396 6.59357 4.71157 6.59357 5.99949C6.59357 7.2874 7.64121 8.33501 8.93056 8.33501ZM8.93056 2.52544C7.01302 2.52544 5.45505 4.08405 5.45505 5.99953C5.45505 7.91541 7.01305 9.47338 8.93056 9.47338C10.846 9.47338 12.404 7.91537 12.404 5.99953C12.404 4.08405 10.846 2.52544 8.93056 2.52544Z" fill="#0D8CFF"/>
</svg>
