<svg width="16" height="16" viewBox="0 0 16 16" fill="none" xmlns="http://www.w3.org/2000/svg">
<path d="M1.3737 8.23224C1.31814 8.08256 1.31814 7.91792 1.3737 7.76824C1.91483 6.45614 2.83338 5.33427 4.01288 4.54484C5.19239 3.75541 6.57973 3.33398 7.99904 3.33398C9.41834 3.33398 10.8057 3.75541 11.9852 4.54484C13.1647 5.33427 14.0832 6.45614 14.6244 7.76824C14.6799 7.91792 14.6799 8.08256 14.6244 8.23224C14.0832 9.54434 13.1647 10.6662 11.9852 11.4556C10.8057 12.2451 9.41834 12.6665 7.99904 12.6665C6.57973 12.6665 5.19239 12.2451 4.01288 11.4556C2.83338 10.6662 1.91483 9.54434 1.3737 8.23224Z" stroke="#65758B" stroke-width="1.33333" stroke-linecap="round" stroke-linejoin="round"/>
<path d="M8 10C9.10457 10 10 9.10457 10 8C10 6.89543 9.10457 6 8 6C6.89543 6 6 6.89543 6 8C6 9.10457 6.89543 10 8 10Z" stroke="#65758B" stroke-width="1.33333" stroke-linecap="round" stroke-linejoin="round"/>
</svg>
