<svg width="14" height="14" viewBox="0 0 14 14" fill="none" xmlns="http://www.w3.org/2000/svg">
<path d="M1.20297 7.20297C1.15435 7.072 1.15435 6.92793 1.20297 6.79697C1.67646 5.64888 2.48018 4.66724 3.51225 3.97649C4.54431 3.28574 5.75824 2.91699 7.00013 2.91699C8.24202 2.91699 9.45595 3.28574 10.488 3.97649C11.5201 4.66724 12.3238 5.64888 12.7973 6.79697C12.8459 6.92793 12.8459 7.072 12.7973 7.20297C12.3238 8.35105 11.5201 9.33269 10.488 10.0234C9.45595 10.7142 8.24202 11.0829 7.00013 11.0829C5.75824 11.0829 4.54431 10.7142 3.51225 10.0234C2.48018 9.33269 1.67646 8.35105 1.20297 7.20297Z" stroke="#0D8CFF" stroke-width="1.16667" stroke-linecap="round" stroke-linejoin="round"/>
<path d="M7 8.75C7.9665 8.75 8.75 7.9665 8.75 7C8.75 6.0335 7.9665 5.25 7 5.25C6.0335 5.25 5.25 6.0335 5.25 7C5.25 7.9665 6.0335 8.75 7 8.75Z" stroke="#0D8CFF" stroke-width="1.16667" stroke-linecap="round" stroke-linejoin="round"/>
</svg>
