<svg width="31" height="27" viewBox="0 0 31 27" fill="none" xmlns="http://www.w3.org/2000/svg">
<path d="M9.65373 19.0781C2.2348 19.0781 -2.40159 11.1352 1.30271 4.77463C3.02588 1.82409 6.20736 0.0033961 9.65373 0.0033961H16.6565L14.3554 3.93745H9.65373C7.63132 3.93745 5.76026 5.00605 4.74903 6.73826C4.22282 7.64009 3.98204 8.59641 3.98204 9.52885C3.98204 12.4556 6.34839 15.1407 9.65373 15.1407H20.832C22.3625 15.1407 23.3187 16.781 22.5551 18.0946C22.3797 18.3975 22.1252 18.6425 21.8259 18.8161C21.5267 18.9863 21.1862 19.0781 20.832 19.0781H14.3176L9.86351 26.7148H5.27183L9.72594 19.0781H9.65373ZM16.3779 22.7774L14.0769 26.7114H21.0796C24.5259 26.7114 27.7075 24.8941 29.4306 21.9402C33.1383 15.5831 28.4985 7.63671 21.0796 7.63671H21.0142L25.4683 0H20.8767L16.4226 7.63671H9.9048C9.55053 7.63671 9.20659 7.72857 8.91078 7.89875C8.61155 8.0723 8.36048 8.31733 8.18507 8.62019C7.42149 9.93044 8.37769 11.5742 9.90822 11.5742H21.0899C24.3952 11.5742 26.7616 14.2592 26.7616 17.186C26.7616 18.1185 26.5208 19.0747 25.9946 19.9766C24.9834 21.7088 23.1158 22.7774 21.0899 22.7774H16.3779Z" fill="url(#paint0_linear_20_1571)"/>
<defs>
<linearGradient id="paint0_linear_20_1571" x1="15.3674" y1="0" x2="15.3674" y2="26.7148" gradientUnits="userSpaceOnUse">
<stop stop-color="#8F66FF"/>
<stop offset="1" stop-color="#12DEFF"/>
</linearGradient>
</defs>
</svg>
