<svg width="16" height="16" viewBox="0 0 16 16" fill="none" xmlns="http://www.w3.org/2000/svg">
<path d="M10.0003 1.33301H4.00033C3.6467 1.33301 3.30756 1.47348 3.05752 1.72353C2.80747 1.97358 2.66699 2.31272 2.66699 2.66634V13.333C2.66699 13.6866 2.80747 14.0258 3.05752 14.2758C3.30756 14.5259 3.6467 14.6663 4.00033 14.6663H12.0003C12.3539 14.6663 12.6931 14.5259 12.9431 14.2758C13.1932 14.0258 13.3337 13.6866 13.3337 13.333V4.66634L10.0003 1.33301Z" stroke="white" stroke-width="1.33333" stroke-linecap="round" stroke-linejoin="round"/>
<path d="M9.33301 1.33301V3.99967C9.33301 4.3533 9.47348 4.69244 9.72353 4.94248C9.97358 5.19253 10.3127 5.33301 10.6663 5.33301H13.333" stroke="white" stroke-width="1.33333" stroke-linecap="round" stroke-linejoin="round"/>
<path d="M6.66634 6H5.33301" stroke="white" stroke-width="1.33333" stroke-linecap="round" stroke-linejoin="round"/>
<path d="M10.6663 8.66699H5.33301" stroke="white" stroke-width="1.33333" stroke-linecap="round" stroke-linejoin="round"/>
<path d="M10.6663 11.333H5.33301" stroke="white" stroke-width="1.33333" stroke-linecap="round" stroke-linejoin="round"/>
</svg>
