<svg width="20" height="20" viewBox="0 0 20 20" fill="none" xmlns="http://www.w3.org/2000/svg">
<path d="M12.5 1.66675H4.99999C4.55797 1.66675 4.13404 1.84234 3.82148 2.1549C3.50892 2.46746 3.33333 2.89139 3.33333 3.33341V16.6667C3.33333 17.1088 3.50892 17.5327 3.82148 17.8453C4.13404 18.1578 4.55797 18.3334 4.99999 18.3334H15C15.442 18.3334 15.8659 18.1578 16.1785 17.8453C16.4911 17.5327 16.6667 17.1088 16.6667 16.6667V5.83341L12.5 1.66675Z" stroke="#0D8CFF" stroke-width="1.66667" stroke-linecap="round" stroke-linejoin="round"/>
<path d="M11.6667 1.66675V5.00008C11.6667 5.44211 11.8423 5.86603 12.1548 6.17859C12.4674 6.49115 12.8913 6.66675 13.3333 6.66675H16.6667" stroke="#0D8CFF" stroke-width="1.66667" stroke-linecap="round" stroke-linejoin="round"/>
<path d="M8.33334 7.5H6.66667" stroke="#0D8CFF" stroke-width="1.66667" stroke-linecap="round" stroke-linejoin="round"/>
<path d="M13.3333 10.8333H6.66667" stroke="#0D8CFF" stroke-width="1.66667" stroke-linecap="round" stroke-linejoin="round"/>
<path d="M13.3333 14.1667H6.66667" stroke="#0D8CFF" stroke-width="1.66667" stroke-linecap="round" stroke-linejoin="round"/>
</svg>
