<svg width="20" height="20" viewBox="0 0 20 20" fill="none" xmlns="http://www.w3.org/2000/svg">
<path d="M17.5008 9.99969C17.9608 9.99969 18.3383 9.62552 18.2925 9.16802C18.1004 7.25483 17.2526 5.46694 15.8928 4.10746C14.533 2.74797 12.7449 1.90055 10.8317 1.70886C10.3733 1.66302 10 2.04052 10 2.50052V9.16719C10 9.3882 10.0878 9.60016 10.2441 9.75644C10.4004 9.91273 10.6123 10.0005 10.8333 10.0005L17.5008 9.99969Z" stroke="#737373" stroke-width="1.66667" stroke-linecap="round" stroke-linejoin="round"/>
<path d="M17.6747 13.2408C17.1445 14.4945 16.3153 15.5993 15.2596 16.4585C14.2038 17.3177 12.9537 17.9053 11.6184 18.1697C10.2831 18.4342 8.90337 18.3675 7.59981 17.9756C6.29624 17.5836 5.10854 16.8783 4.14053 15.9213C3.17253 14.9643 2.4537 13.7847 2.04688 12.4857C1.64006 11.1867 1.55765 9.80783 1.80685 8.46962C2.05605 7.13141 2.62926 5.87461 3.47639 4.80911C4.32351 3.74361 5.41875 2.90185 6.66635 2.35742" stroke="#737373" stroke-width="1.66667" stroke-linecap="round" stroke-linejoin="round"/>
</svg>
