<svg width="16" height="16" viewBox="0 0 16 16" fill="none" xmlns="http://www.w3.org/2000/svg">
<path d="M6 2H2.66667C2.29848 2 2 2.29848 2 2.66667V6C2 6.36819 2.29848 6.66667 2.66667 6.66667H6C6.36819 6.66667 6.66667 6.36819 6.66667 6V2.66667C6.66667 2.29848 6.36819 2 6 2Z" stroke="#1A1A1A" stroke-width="1.33333" stroke-linecap="round" stroke-linejoin="round"/>
<path d="M13.333 2H9.99967C9.63148 2 9.33301 2.29848 9.33301 2.66667V6C9.33301 6.36819 9.63148 6.66667 9.99967 6.66667H13.333C13.7012 6.66667 13.9997 6.36819 13.9997 6V2.66667C13.9997 2.29848 13.7012 2 13.333 2Z" stroke="#1A1A1A" stroke-width="1.33333" stroke-linecap="round" stroke-linejoin="round"/>
<path d="M13.333 9.33325H9.99967C9.63148 9.33325 9.33301 9.63173 9.33301 9.99992V13.3333C9.33301 13.7014 9.63148 13.9999 9.99967 13.9999H13.333C13.7012 13.9999 13.9997 13.7014 13.9997 13.3333V9.99992C13.9997 9.63173 13.7012 9.33325 13.333 9.33325Z" stroke="#1A1A1A" stroke-width="1.33333" stroke-linecap="round" stroke-linejoin="round"/>
<path d="M6 9.33325H2.66667C2.29848 9.33325 2 9.63173 2 9.99992V13.3333C2 13.7014 2.29848 13.9999 2.66667 13.9999H6C6.36819 13.9999 6.66667 13.7014 6.66667 13.3333V9.99992C6.66667 9.63173 6.36819 9.33325 6 9.33325Z" stroke="#1A1A1A" stroke-width="1.33333" stroke-linecap="round" stroke-linejoin="round"/>
</svg>
