<svg width="20" height="20" viewBox="0 0 20 20" fill="none" xmlns="http://www.w3.org/2000/svg">
<path d="M10.833 3.33398H13.333C13.775 3.33398 14.199 3.50958 14.5115 3.82214C14.8241 4.1347 14.9997 4.55862 14.9997 5.00065V16.6673" stroke="#676F7E" stroke-width="1.66667" stroke-linecap="round" stroke-linejoin="round"/>
<path d="M1.66699 16.666H4.16699" stroke="#676F7E" stroke-width="1.66667" stroke-linecap="round" stroke-linejoin="round"/>
<path d="M10.833 16.666H18.333" stroke="#676F7E" stroke-width="1.66667" stroke-linecap="round" stroke-linejoin="round"/>
<path d="M8.33301 10V10.0083" stroke="#676F7E" stroke-width="1.66667" stroke-linecap="round" stroke-linejoin="round"/>
<path d="M10.8337 3.80118V17.2653C10.8336 17.3919 10.8048 17.5168 10.7492 17.6306C10.6937 17.7444 10.613 17.844 10.5133 17.9219C10.4135 17.9998 10.2973 18.054 10.1735 18.0803C10.0497 18.1066 9.92148 18.1043 9.79866 18.0737L4.16699 16.6662V4.63451C4.16705 4.26285 4.29133 3.90188 4.52008 3.60896C4.74883 3.31603 5.06893 3.10797 5.42949 3.01785L8.76283 2.18451C9.00845 2.12312 9.26484 2.11849 9.51252 2.17098C9.7602 2.22346 9.99267 2.33169 10.1923 2.48744C10.3919 2.64319 10.5534 2.84237 10.6645 3.06986C10.7756 3.29735 10.8335 3.548 10.8337 3.80118Z" stroke="#676F7E" stroke-width="1.66667" stroke-linecap="round" stroke-linejoin="round"/>
</svg>
