<svg width="17" height="16" viewBox="0 0 17 16" fill="none" xmlns="http://www.w3.org/2000/svg">
<path d="M8.45801 14.7734L8.32031 14.957L8.45801 15.0605L8.5957 14.957L8.45801 14.7734ZM8.45801 14.7734L8.5957 14.9561H8.59668L8.59766 14.9551C8.59869 14.9543 8.60067 14.9536 8.60254 14.9521C8.60654 14.9491 8.61248 14.9443 8.62012 14.9385C8.63553 14.9267 8.65813 14.9094 8.6875 14.8867C8.74671 14.8411 8.8334 14.7735 8.94336 14.6865C9.16364 14.5123 9.47853 14.259 9.85547 13.9424C10.609 13.3095 11.6147 12.4216 12.6211 11.4033C13.6265 10.386 14.6378 9.23288 15.3994 8.06934C16.1574 6.91129 16.6865 5.71434 16.6865 4.61523V4.38672H16.6836C16.6258 2.05948 14.5096 0.229492 11.958 0.229492C10.5649 0.229492 9.32313 0.781334 8.45801 1.64844C7.59288 0.781334 6.3511 0.229492 4.95801 0.229492C2.40639 0.229492 0.290214 2.05948 0.232422 4.38672H0.229492V4.61523C0.229492 5.71434 0.758609 6.91129 1.5166 8.06934C2.2782 9.23288 3.28948 10.386 4.29492 11.4033C5.30131 12.4216 6.307 13.3095 7.06055 13.9424C7.43749 14.259 7.75238 14.5123 7.97266 14.6865C8.08261 14.7735 8.1693 14.8411 8.22852 14.8867C8.25789 14.9094 8.28048 14.9267 8.2959 14.9385C8.30354 14.9443 8.30947 14.9491 8.31348 14.9521C8.31535 14.9536 8.31732 14.9543 8.31836 14.9551L8.31934 14.9561L8.45801 14.7734ZM11.958 1.58203C10.9676 1.58203 10.0391 1.98913 9.40918 2.69336L8.62891 3.56641L8.45801 3.75781L8.28711 3.56641L7.50684 2.69336C6.87689 1.98913 5.94844 1.58203 4.95801 1.58203C3.14866 1.58203 1.71543 2.8808 1.68652 4.43652C1.69337 4.48511 1.69958 4.53295 1.70117 4.58203L1.71387 4.97949C1.80522 5.62396 2.12507 6.35612 2.60645 7.12988C3.08797 7.90386 3.7216 8.7048 4.41895 9.48242C5.75646 10.9739 7.31723 12.3635 8.45703 13.29C9.6057 12.3558 11.182 10.9517 12.5264 9.44727C13.227 8.66319 13.8615 7.85613 14.3398 7.07812C14.8189 6.29892 15.1309 5.56438 15.209 4.9209L15.2148 4.58496V4.58301C15.2163 4.53168 15.2216 4.48312 15.2275 4.43848C15.2004 2.88196 13.7682 1.58203 11.958 1.58203Z" fill="#FF0000" stroke="white" stroke-width="0.457895"/>
<path d="M8.45827 13.3155C13.6348 10.0222 20.2231 -1.74316 8.45827 2.96254C4.5367 0.29573 -3.77695 2.96246 8.45827 13.3155Z" fill="#FF0000" stroke="white" stroke-width="1.70588"/>
</svg>
