<svg width="20" height="20" viewBox="0 0 20 20" fill="none" xmlns="http://www.w3.org/2000/svg">
<path d="M12.917 6.24967L14.8337 8.16634C14.9894 8.31903 15.1989 8.40456 15.417 8.40456C15.6351 8.40456 15.8446 8.31903 16.0003 8.16634L17.7503 6.41634C17.903 6.26057 17.9885 6.05113 17.9885 5.83301C17.9885 5.61488 17.903 5.40545 17.7503 5.24967L15.8337 3.33301" stroke="#0A91FF" stroke-width="1.66667" stroke-linecap="round" stroke-linejoin="round"/>
<path d="M17.5 1.66699L9.5 9.66699" stroke="#0A91FF" stroke-width="1.66667" stroke-linecap="round" stroke-linejoin="round"/>
<path d="M6.25033 17.4997C8.78163 17.4997 10.8337 15.4476 10.8337 12.9163C10.8337 10.385 8.78163 8.33301 6.25033 8.33301C3.71902 8.33301 1.66699 10.385 1.66699 12.9163C1.66699 15.4476 3.71902 17.4997 6.25033 17.4997Z" stroke="#0A91FF" stroke-width="1.66667" stroke-linecap="round" stroke-linejoin="round"/>
</svg>
