<svg width="20" height="20" viewBox="0 0 20 20" fill="none" xmlns="http://www.w3.org/2000/svg">
<path d="M13.3335 1.66602L11.4168 3.58268C10.9587 4.05 10.7021 4.6783 10.7021 5.33268C10.7021 5.98706 10.9587 6.61536 11.4168 7.08268L12.9168 8.58268C13.3841 9.04075 14.0124 9.29733 14.6668 9.29733C15.3212 9.29733 15.9495 9.04075 16.4168 8.58268L18.3335 6.66602" stroke="#676F7E" stroke-width="1.66667" stroke-linecap="round" stroke-linejoin="round"/>
<path d="M12.4997 12.5L2.74973 2.75C2.41713 3.07588 2.1529 3.46485 1.97252 3.89413C1.79213 4.3234 1.69922 4.78436 1.69922 5.25C1.69922 5.71564 1.79213 6.1766 1.97252 6.60587C2.1529 7.03515 2.41713 7.42412 2.74973 7.75L8.83306 13.8333C9.4164 14.4167 10.4997 14.4167 11.1664 13.8333L12.4997 12.5ZM12.4997 12.5L18.3331 18.3333" stroke="#676F7E" stroke-width="1.66667" stroke-linecap="round" stroke-linejoin="round"/>
<path d="M1.75 18.166L7.08333 12.916" stroke="#676F7E" stroke-width="1.66667" stroke-linecap="round" stroke-linejoin="round"/>
<path d="M15.8333 4.16602L10 9.99935" stroke="#676F7E" stroke-width="1.66667" stroke-linecap="round" stroke-linejoin="round"/>
</svg>
