<svg width="16" height="16" viewBox="0 0 16 16" fill="none" xmlns="http://www.w3.org/2000/svg">
<path d="M1.3335 8H14.6668" stroke="#6C7C93" stroke-width="1.33333" stroke-linecap="round" stroke-linejoin="round"/>
<path d="M13.3332 8V13.3333C13.3332 13.687 13.1927 14.0261 12.9426 14.2761C12.6926 14.5262 12.3535 14.6667 11.9998 14.6667H3.99984C3.64622 14.6667 3.30708 14.5262 3.05703 14.2761C2.80698 14.0261 2.6665 13.687 2.6665 13.3333V8" stroke="#6C7C93" stroke-width="1.33333" stroke-linecap="round" stroke-linejoin="round"/>
<path d="M2.6665 5.33317L13.3332 2.6665" stroke="#6C7C93" stroke-width="1.33333" stroke-linecap="round" stroke-linejoin="round"/>
<path d="M5.90667 4.52003L5.60667 3.31336C5.56368 3.14352 5.5546 2.96687 5.57992 2.79351C5.60525 2.62015 5.66449 2.45348 5.75427 2.30303C5.84404 2.15258 5.96259 2.02129 6.10313 1.91668C6.24367 1.81207 6.40345 1.73619 6.57333 1.69336L7.86667 1.37336C8.03696 1.33049 8.21405 1.32167 8.38775 1.34742C8.56146 1.37318 8.72837 1.43299 8.8789 1.52343C9.02943 1.61387 9.16061 1.73316 9.26491 1.87444C9.36921 2.01572 9.44457 2.17621 9.48667 2.3467L9.78667 3.5467" stroke="#6C7C93" stroke-width="1.33333" stroke-linecap="round" stroke-linejoin="round"/>
</svg>
