<svg width="20" height="20" viewBox="0 0 20 20" fill="none" xmlns="http://www.w3.org/2000/svg">
<path d="M13.3335 1.66699L11.4168 3.58366C10.9587 4.05098 10.7021 4.67928 10.7021 5.33366C10.7021 5.98804 10.9587 6.61634 11.4168 7.08366L12.9168 8.58366C13.3841 9.04173 14.0124 9.2983 14.6668 9.2983C15.3212 9.2983 15.9495 9.04173 16.4168 8.58366L18.3335 6.66699" stroke="#0F1729" stroke-width="1.66667" stroke-linecap="round" stroke-linejoin="round"/>
<path d="M12.4997 12.5L2.74973 2.75C2.41713 3.07588 2.1529 3.46485 1.97252 3.89413C1.79213 4.3234 1.69922 4.78436 1.69922 5.25C1.69922 5.71564 1.79213 6.1766 1.97252 6.60587C2.1529 7.03515 2.41713 7.42412 2.74973 7.75L8.83306 13.8333C9.4164 14.4167 10.4997 14.4167 11.1664 13.8333L12.4997 12.5ZM12.4997 12.5L18.3331 18.3333" stroke="#0F1729" stroke-width="1.66667" stroke-linecap="round" stroke-linejoin="round"/>
<path d="M1.75 18.167L7.08333 12.917" stroke="#0F1729" stroke-width="1.66667" stroke-linecap="round" stroke-linejoin="round"/>
<path d="M15.8333 4.16699L10 10.0003" stroke="#0F1729" stroke-width="1.66667" stroke-linecap="round" stroke-linejoin="round"/>
</svg>
