<svg width="16" height="16" viewBox="0 0 16 16" fill="none" xmlns="http://www.w3.org/2000/svg">
<path d="M7.33316 13.333C6.16253 13.3366 5.03333 12.9 4.1695 12.11C3.30568 11.3199 2.77033 10.234 2.66965 9.06775C2.56896 7.90145 2.91028 6.73991 3.62592 5.8135C4.34156 4.88709 5.37924 4.26347 6.53316 4.06634C10.3332 3.33301 11.3332 2.98634 12.6665 1.33301C13.3332 2.66634 13.9998 4.11967 13.9998 6.66634C13.9998 10.333 10.8132 13.333 7.33316 13.333Z" stroke="white" stroke-width="1.33333" stroke-linecap="round" stroke-linejoin="round"/>
<path d="M1.33398 14C1.33398 12 2.56732 10.4267 4.72065 10C6.33398 9.68 8.00065 8.66667 8.66732 8" stroke="white" stroke-width="1.33333" stroke-linecap="round" stroke-linejoin="round"/>
</svg>
