<svg width="20" height="20" viewBox="0 0 20 20" fill="none" xmlns="http://www.w3.org/2000/svg">
<path d="M14.9997 4.16602L12.988 2.15435C12.6755 1.84177 12.2517 1.66611 11.8097 1.66602H4.99967C4.55765 1.66602 4.13372 1.84161 3.82116 2.15417C3.5086 2.46673 3.33301 2.89065 3.33301 3.33268V16.666C3.33301 17.108 3.5086 17.532 3.82116 17.8445C4.13372 18.1571 4.55765 18.3327 4.99967 18.3327H14.9997C15.4417 18.3327 15.8656 18.1571 16.1782 17.8445C16.4907 17.532 16.6663 17.108 16.6663 16.666" stroke="#0D91FD" stroke-width="1.66667" stroke-linecap="round" stroke-linejoin="round"/>
<path d="M17.8148 10.5218C18.1468 10.1898 18.3333 9.73959 18.3333 9.27012C18.3333 8.80066 18.1468 8.35042 17.8148 8.01846C17.4829 7.68649 17.0326 7.5 16.5632 7.5C16.0937 7.5 15.6434 7.68649 15.3115 8.01846L11.9698 11.3618C11.7717 11.5598 11.6267 11.8046 11.5482 12.0735L10.8507 14.4651C10.8297 14.5368 10.8285 14.6128 10.847 14.6852C10.8656 14.7576 10.9032 14.8236 10.956 14.8764C11.0088 14.9292 11.0749 14.9669 11.1472 14.9854C11.2196 15.004 11.2956 15.0027 11.3673 14.9818L13.759 14.2843C14.0279 14.2058 14.2726 14.0608 14.4707 13.8626L17.8148 10.5218Z" stroke="#0D91FD" stroke-width="1.66667" stroke-linecap="round" stroke-linejoin="round"/>
<path d="M6.66699 15H7.50033" stroke="#0D91FD" stroke-width="1.66667" stroke-linecap="round" stroke-linejoin="round"/>
</svg>
