<svg width="14" height="14" viewBox="0 0 14 14" fill="none" xmlns="http://www.w3.org/2000/svg">
<path d="M2.33337 8.16656C2.22298 8.16693 2.11475 8.13598 2.02126 8.0773C1.92776 8.01861 1.85284 7.9346 1.80519 7.83502C1.75754 7.73545 1.73912 7.6244 1.75208 7.51478C1.76503 7.40515 1.80882 7.30145 1.87837 7.21572L7.65337 1.26572C7.69669 1.21572 7.75572 1.18193 7.82078 1.1699C7.88583 1.15787 7.95304 1.16832 8.01138 1.19952C8.06972 1.23072 8.11571 1.28083 8.14182 1.34162C8.16792 1.40241 8.17258 1.47027 8.15504 1.53406L7.03504 5.04572C7.00201 5.13411 6.99092 5.22919 7.00271 5.32281C7.01451 5.41643 7.04884 5.50579 7.10276 5.58322C7.15667 5.66066 7.22857 5.72386 7.31228 5.7674C7.39599 5.81094 7.48901 5.83353 7.58337 5.83322H11.6667C11.7771 5.83285 11.8853 5.8638 11.9788 5.92249C12.0723 5.98117 12.1472 6.06518 12.1949 6.16476C12.2425 6.26433 12.2609 6.37538 12.248 6.48501C12.235 6.59463 12.1912 6.69833 12.1217 6.78406L6.3467 12.7341C6.30338 12.7841 6.24435 12.8178 6.1793 12.8299C6.11424 12.8419 6.04703 12.8315 5.98869 12.8003C5.93036 12.7691 5.88436 12.719 5.85826 12.6582C5.83215 12.5974 5.82749 12.5295 5.84504 12.4657L6.96504 8.95406C6.99806 8.86567 7.00915 8.77059 6.99736 8.67697C6.98556 8.58335 6.95123 8.49399 6.89732 8.41656C6.8434 8.33912 6.7715 8.27592 6.68779 8.23238C6.60408 8.18884 6.51106 8.16625 6.4167 8.16656H2.33337Z" stroke="#0D8CFF" stroke-width="1.16667" stroke-linecap="round" stroke-linejoin="round"/>
</svg>
