<svg width="17" height="19" viewBox="0 0 17 19" fill="none" xmlns="http://www.w3.org/2000/svg">
<path d="M1.66918 10.8357C1.51149 10.8362 1.35688 10.792 1.22331 10.7081C1.08975 10.6243 0.982711 10.5043 0.914641 10.362C0.846571 10.2198 0.820261 10.0612 0.838766 9.90455C0.857271 9.74794 0.919833 9.5998 1.01918 9.47733L9.26918 0.977333C9.33107 0.905901 9.4154 0.85763 9.50833 0.840444C9.60127 0.823257 9.69729 0.838177 9.78062 0.882753C9.86396 0.927329 9.92967 0.998914 9.96696 1.08576C10.0043 1.1726 10.0109 1.26954 9.98585 1.36067L8.38585 6.37733C8.33867 6.5036 8.32283 6.63943 8.33968 6.77317C8.35653 6.90691 8.40557 7.03457 8.48259 7.14519C8.55962 7.25581 8.66233 7.3461 8.78191 7.4083C8.9015 7.4705 9.03439 7.50277 9.16918 7.50233H15.0025C15.1602 7.5018 15.3148 7.54601 15.4484 7.62985C15.582 7.71369 15.689 7.8337 15.7571 7.97595C15.8251 8.1182 15.8514 8.27684 15.8329 8.43345C15.8144 8.59006 15.7519 8.7382 15.6525 8.86067L7.40252 17.3607C7.34063 17.4321 7.2563 17.4804 7.16337 17.4976C7.07043 17.5147 6.97441 17.4998 6.89107 17.4552C6.80774 17.4107 6.74203 17.3391 6.70474 17.2522C6.66744 17.1654 6.66079 17.0685 6.68585 16.9773L8.28585 11.9607C8.33303 11.8344 8.34887 11.6986 8.33202 11.5648C8.31517 11.4311 8.26613 11.3034 8.18911 11.1928C8.11208 11.0822 8.00937 10.9919 7.88979 10.9297C7.7702 10.8675 7.63731 10.8352 7.50252 10.8357H1.66918Z" stroke="#6C7C93" stroke-width="1.66667" stroke-linecap="round" stroke-linejoin="round"/>
</svg>
