<svg width="16" height="16" viewBox="0 0 16 16" fill="none" xmlns="http://www.w3.org/2000/svg">
<path d="M6.00065 11.3337H4.66732C3.78326 11.3337 2.93542 10.9825 2.3103 10.3573C1.68517 9.73223 1.33398 8.88438 1.33398 8.00033C1.33398 7.11627 1.68517 6.26842 2.3103 5.6433C2.93542 5.01818 3.78326 4.66699 4.66732 4.66699H6.00065" stroke="#797986" stroke-width="1.33333" stroke-linecap="round" stroke-linejoin="round"/>
<path d="M10 4.66699H11.3333C12.2174 4.66699 13.0652 5.01818 13.6904 5.6433C14.3155 6.26842 14.6667 7.11627 14.6667 8.00033C14.6667 8.88438 14.3155 9.73223 13.6904 10.3573C13.0652 10.9825 12.2174 11.3337 11.3333 11.3337H10" stroke="#797986" stroke-width="1.33333" stroke-linecap="round" stroke-linejoin="round"/>
<path d="M5.33301 8H10.6663" stroke="#797986" stroke-width="1.33333" stroke-linecap="round" stroke-linejoin="round"/>
</svg>
