<svg width="32" height="32" viewBox="0 0 32 32" fill="none" xmlns="http://www.w3.org/2000/svg">
<g opacity="0.5">
<path d="M26.6668 13.3334C26.6668 19.9907 19.2815 26.9241 16.8015 29.0654C16.5705 29.2391 16.2892 29.3331 16.0002 29.3331C15.7111 29.3331 15.4299 29.2391 15.1988 29.0654C12.7188 26.9241 5.3335 19.9907 5.3335 13.3334C5.3335 10.5044 6.4573 7.79133 8.45769 5.79094C10.4581 3.79055 13.1712 2.66675 16.0002 2.66675C18.8291 2.66675 21.5422 3.79055 23.5426 5.79094C25.543 7.79133 26.6668 10.5044 26.6668 13.3334Z" stroke="#737373" stroke-width="2.66667" stroke-linecap="round" stroke-linejoin="round"/>
<path d="M16 17.3333C18.2091 17.3333 20 15.5424 20 13.3333C20 11.1241 18.2091 9.33325 16 9.33325C13.7909 9.33325 12 11.1241 12 13.3333C12 15.5424 13.7909 17.3333 16 17.3333Z" stroke="#737373" stroke-width="2.66667" stroke-linecap="round" stroke-linejoin="round"/>
</g>
</svg>
