<svg width="14" height="14" viewBox="0 0 14 14" fill="none" xmlns="http://www.w3.org/2000/svg">
<path d="M11.6663 5.83341C11.6663 8.746 8.43526 11.7793 7.35026 12.7162C7.24918 12.7922 7.12614 12.8333 6.99967 12.8333C6.87321 12.8333 6.75017 12.7922 6.64909 12.7162C5.56409 11.7793 2.33301 8.746 2.33301 5.83341C2.33301 4.59574 2.82467 3.40875 3.69984 2.53358C4.57501 1.65841 5.762 1.16675 6.99967 1.16675C8.23735 1.16675 9.42434 1.65841 10.2995 2.53358C11.1747 3.40875 11.6663 4.59574 11.6663 5.83341Z" stroke="#737373" stroke-width="1.16667" stroke-linecap="round" stroke-linejoin="round"/>
<path d="M7 7.58325C7.9665 7.58325 8.75 6.79975 8.75 5.83325C8.75 4.86675 7.9665 4.08325 7 4.08325C6.0335 4.08325 5.25 4.86675 5.25 5.83325C5.25 6.79975 6.0335 7.58325 7 7.58325Z" stroke="#737373" stroke-width="1.16667" stroke-linecap="round" stroke-linejoin="round"/>
</svg>
