<svg width="14" height="14" viewBox="0 0 14 14" fill="none" xmlns="http://www.w3.org/2000/svg">
<path d="M11.6668 5.83268C11.6668 8.74527 8.43575 11.7786 7.35075 12.7154C7.24967 12.7914 7.12663 12.8325 7.00016 12.8325C6.8737 12.8325 6.75066 12.7914 6.64958 12.7154C5.56458 11.7786 2.3335 8.74527 2.3335 5.83268C2.3335 4.59501 2.82516 3.40802 3.70033 2.53285C4.5755 1.65768 5.76249 1.16602 7.00016 1.16602C8.23784 1.16602 9.42482 1.65768 10.3 2.53285C11.1752 3.40802 11.6668 4.59501 11.6668 5.83268Z" stroke="white" stroke-opacity="0.8" stroke-width="1.16667" stroke-linecap="round" stroke-linejoin="round"/>
<path d="M7 7.58398C7.9665 7.58398 8.75 6.80048 8.75 5.83398C8.75 4.86749 7.9665 4.08398 7 4.08398C6.0335 4.08398 5.25 4.86749 5.25 5.83398C5.25 6.80048 6.0335 7.58398 7 7.58398Z" stroke="white" stroke-opacity="0.8" stroke-width="1.16667" stroke-linecap="round" stroke-linejoin="round"/>
</svg>
