<svg width="32" height="32" viewBox="0 0 32 32" fill="none" xmlns="http://www.w3.org/2000/svg">
<path d="M16 2.66699C14.9391 2.66699 13.9217 3.08842 13.1716 3.83857C12.4214 4.58871 12 5.60613 12 6.66699V16.0003C12 17.0612 12.4214 18.0786 13.1716 18.8288C13.9217 19.5789 14.9391 20.0003 16 20.0003C17.0609 20.0003 18.0783 19.5789 18.8284 18.8288C19.5786 18.0786 20 17.0612 20 16.0003V6.66699C20 5.60613 19.5786 4.58871 18.8284 3.83857C18.0783 3.08842 17.0609 2.66699 16 2.66699Z" stroke="white" stroke-width="2.66667" stroke-linecap="round" stroke-linejoin="round"/>
<path d="M25.3332 13.333V15.9997C25.3332 18.475 24.3498 20.849 22.5995 22.5993C20.8492 24.3497 18.4752 25.333 15.9998 25.333C13.5245 25.333 11.1505 24.3497 9.40017 22.5993C7.64983 20.849 6.6665 18.475 6.6665 15.9997V13.333" stroke="white" stroke-width="2.66667" stroke-linecap="round" stroke-linejoin="round"/>
<path d="M16 25.333V29.333" stroke="white" stroke-width="2.66667" stroke-linecap="round" stroke-linejoin="round"/>
</svg>
