<svg width="16" height="16" viewBox="0 0 16 16" fill="none" xmlns="http://www.w3.org/2000/svg">
<path d="M7.33301 3.13436C7.33287 3.0415 7.30524 2.95076 7.25358 2.8736C7.20193 2.79643 7.12858 2.7363 7.04278 2.70078C6.95698 2.66526 6.86258 2.65595 6.7715 2.67403C6.68042 2.69211 6.59674 2.73677 6.53101 2.80236L4.27501 5.05769C4.18794 5.14528 4.08436 5.21471 3.97027 5.26198C3.85618 5.30924 3.73384 5.33339 3.61034 5.33303H1.99967C1.82286 5.33303 1.65329 5.40326 1.52827 5.52829C1.40325 5.65331 1.33301 5.82288 1.33301 5.99969V9.99969C1.33301 10.1765 1.40325 10.3461 1.52827 10.4711C1.65329 10.5961 1.82286 10.6664 1.99967 10.6664H3.61034C3.73384 10.666 3.85618 10.6901 3.97027 10.7374C4.08436 10.7847 4.18794 10.8541 4.27501 10.9417L6.53034 13.1977C6.59607 13.2636 6.67988 13.3084 6.77114 13.3266C6.86239 13.3448 6.957 13.3355 7.04296 13.2999C7.12892 13.2642 7.20237 13.2039 7.25401 13.1265C7.30564 13.0491 7.33314 12.9581 7.33301 12.865V3.13436Z" stroke="#6B7280" stroke-width="1.33333" stroke-linecap="round" stroke-linejoin="round"/>
<path d="M14.667 6L10.667 10" stroke="#6B7280" stroke-width="1.33333" stroke-linecap="round" stroke-linejoin="round"/>
<path d="M10.667 6L14.667 10" stroke="#6B7280" stroke-width="1.33333" stroke-linecap="round" stroke-linejoin="round"/>
</svg>
