<svg width="20" height="20" viewBox="0 0 20 20" fill="none" xmlns="http://www.w3.org/2000/svg">
<path d="M4.83366 9.41699L1.66699 18.3337L10.5837 15.1753" stroke="#0D8CFF" stroke-width="1.66667" stroke-linecap="round" stroke-linejoin="round"/>
<path d="M3.33301 2.5H3.34134" stroke="#0D8CFF" stroke-width="1.66667" stroke-linecap="round" stroke-linejoin="round"/>
<path d="M18.333 6.66699H18.3413" stroke="#0D8CFF" stroke-width="1.66667" stroke-linecap="round" stroke-linejoin="round"/>
<path d="M12.5 1.66699H12.5083" stroke="#0D8CFF" stroke-width="1.66667" stroke-linecap="round" stroke-linejoin="round"/>
<path d="M18.333 16.667H18.3413" stroke="#0D8CFF" stroke-width="1.66667" stroke-linecap="round" stroke-linejoin="round"/>
<path d="M18.3337 1.66699L16.467 2.29199C15.9356 2.46898 15.4823 2.82503 15.1843 3.29926C14.8864 3.7735 14.7625 4.33649 14.8337 4.89199C14.917 5.60866 14.3587 6.25033 13.6253 6.25033H13.3087C12.592 6.25033 11.9753 6.75033 11.842 7.45033L11.667 8.33366" stroke="#0D8CFF" stroke-width="1.66667" stroke-linecap="round" stroke-linejoin="round"/>
<path d="M18.3337 10.8331L17.6503 10.5581C16.9337 10.2748 16.1337 10.7248 16.0003 11.4831C15.9087 12.0664 15.4003 12.4998 14.8087 12.4998H14.167" stroke="#0D8CFF" stroke-width="1.66667" stroke-linecap="round" stroke-linejoin="round"/>
<path d="M9.16667 1.66699L9.44167 2.35033C9.725 3.06699 9.275 3.86699 8.51667 4.00033C7.93333 4.08366 7.5 4.60033 7.5 5.19199V5.83366" stroke="#0D8CFF" stroke-width="1.66667" stroke-linecap="round" stroke-linejoin="round"/>
<path d="M9.16644 10.8334C10.7748 12.4418 11.5248 14.3084 10.8331 15.0001C10.1414 15.6918 8.27477 14.9418 6.66644 13.3334C5.0581 11.7251 4.3081 9.85843 4.99977 9.16676C5.69144 8.4751 7.5581 9.2251 9.16644 10.8334Z" stroke="#0D8CFF" stroke-width="1.66667" stroke-linecap="round" stroke-linejoin="round"/>
</svg>
