<svg width="24" height="24" viewBox="0 0 24 24" fill="none" xmlns="http://www.w3.org/2000/svg">
<path d="M13.0897 21.7447C12.9334 21.9009 12.7215 21.9887 12.5005 21.9887C12.2796 21.9887 12.0676 21.9009 11.9114 21.7447L10.5897 20.423C10.4335 20.2668 10.3457 20.0548 10.3457 19.8339C10.3457 19.6129 10.4335 19.401 10.5897 19.2447L15.2447 14.5897C15.401 14.4335 15.6129 14.3457 15.8339 14.3457C16.0548 14.3457 16.2668 14.4335 16.423 14.5897L17.7447 15.9114C17.9009 16.0676 17.9887 16.2796 17.9887 16.5005C17.9887 16.7215 17.9009 16.9334 17.7447 17.0897L13.0897 21.7447Z" stroke="#0A91FF" stroke-width="1.66667" stroke-linecap="round" stroke-linejoin="round"/>
<path d="M14.9994 14.8327L13.8535 9.10435C13.8224 8.9485 13.7473 8.80482 13.6371 8.69024C13.527 8.57566 13.3864 8.49497 13.2319 8.45769L2.69519 5.68935C2.55638 5.65579 2.41127 5.65847 2.27379 5.69712C2.13631 5.73578 2.01108 5.80911 1.91009 5.91009C1.80911 6.01108 1.73578 6.13631 1.69712 6.27379C1.65847 6.41127 1.65579 6.55638 1.68935 6.69519L4.45769 17.2319C4.49497 17.3864 4.57566 17.527 4.69024 17.6371C4.80482 17.7473 4.9485 17.8224 5.10435 17.8535L10.8327 18.9994" stroke="#0A91FF" stroke-width="1.66667" stroke-linecap="round" stroke-linejoin="round"/>
<path d="M1.91602 5.91602L7.98768 11.9877" stroke="#0A91FF" stroke-width="1.66667" stroke-linecap="round" stroke-linejoin="round"/>
<path d="M9.16667 14.8333C10.0871 14.8333 10.8333 14.0871 10.8333 13.1667C10.8333 12.2462 10.0871 11.5 9.16667 11.5C8.24619 11.5 7.5 12.2462 7.5 13.1667C7.5 14.0871 8.24619 14.8333 9.16667 14.8333Z" stroke="#0A91FF" stroke-width="1.66667" stroke-linecap="round" stroke-linejoin="round"/>
<rect x="14" width="10" height="10" rx="5" fill="#0A91FF"/>
</svg>
