<svg width="20" height="20" viewBox="0 0 20 20" fill="none" xmlns="http://www.w3.org/2000/svg">
<path d="M9.375 13.542H10.625L10 14.167L9.375 13.542Z" stroke="#0D8CFF" stroke-width="1.66667" stroke-linecap="round" stroke-linejoin="round"/>
<path d="M13.333 11.667V12.0837" stroke="#0D8CFF" stroke-width="1.66667" stroke-linecap="round" stroke-linejoin="round"/>
<path d="M3.68301 9.37207C3.44979 10.2727 3.33218 11.1993 3.33301 12.1296C3.33301 15.6062 6.31801 17.4996 9.99968 17.4996C13.6813 17.4996 16.6663 15.6062 16.6663 12.1296C16.6622 11.1955 16.5238 10.2668 16.2555 9.37207" stroke="#0D8CFF" stroke-width="1.66667" stroke-linecap="round" stroke-linejoin="round"/>
<path d="M6.66699 11.667V12.0837" stroke="#0D8CFF" stroke-width="1.66667" stroke-linecap="round" stroke-linejoin="round"/>
<path d="M7.08381 7.08314C6.76381 7.95814 6.18131 8.77314 5.13047 9.16648C3.52131 9.76814 2.15047 8.91898 2.08381 8.33314C1.98964 7.50481 3.06464 2.89148 5.41714 2.49981C7.01964 2.23231 8.45964 3.20398 8.45964 4.36231C9.51363 4.09463 10.6192 4.10669 11.6671 4.39731C11.6671 3.23898 13.2038 2.23231 14.8063 2.49981C17.1588 2.89148 18.2338 7.50481 18.1396 8.33314C18.073 8.91898 16.7021 9.76814 15.093 9.16648C14.0421 8.77314 13.5471 7.95814 13.2271 7.08314" stroke="#0D8CFF" stroke-width="1.66667" stroke-linecap="round" stroke-linejoin="round"/>
</svg>
