<svg width="15" height="15" viewBox="0 0 15 15" fill="none" xmlns="http://www.w3.org/2000/svg">
<path d="M13.9257 10.6137V12.6137C13.9265 12.7994 13.8885 12.9832 13.8141 13.1533C13.7397 13.3234 13.6306 13.4761 13.4938 13.6016C13.357 13.7272 13.1955 13.8227 13.0196 13.8822C12.8437 13.9417 12.6573 13.9638 12.4724 13.9471C10.421 13.7242 8.4504 13.0232 6.71907 11.9004C5.10829 10.8768 3.74263 9.51117 2.71907 7.90039C1.59239 6.16119 0.891232 4.18105 0.672403 2.12039C0.655744 1.93603 0.677653 1.75023 0.736737 1.57481C0.795821 1.39938 0.890784 1.23818 1.01558 1.10147C1.14038 0.964759 1.29227 0.85553 1.4616 0.780738C1.63092 0.705947 1.81396 0.667231 1.99907 0.667057H3.99907C4.32261 0.663873 4.63626 0.778443 4.88158 0.989412C5.12689 1.20038 5.28712 1.49335 5.3324 1.81372C5.41682 2.45377 5.57337 3.08221 5.79907 3.68706C5.88877 3.92567 5.90818 4.185 5.85501 4.43431C5.80184 4.68362 5.67831 4.91246 5.49907 5.09372L4.6524 5.94039C5.60144 7.60942 6.98337 8.99135 8.6524 9.94039L9.49907 9.09372C9.68033 8.91448 9.90917 8.79096 10.1585 8.73779C10.4078 8.68462 10.6671 8.70403 10.9057 8.79372C11.5106 9.01942 12.139 9.17598 12.7791 9.26039C13.1029 9.30608 13.3987 9.46919 13.6101 9.71872C13.8215 9.96825 13.9338 10.2868 13.9257 10.6137Z" stroke="#65758B" stroke-width="1.33333" stroke-linecap="round" stroke-linejoin="round"/>
</svg>
