<svg width="20" height="20" viewBox="0 0 20 20" fill="none" xmlns="http://www.w3.org/2000/svg">
<path d="M5 18.3334V3.33341C5 2.89139 5.17559 2.46746 5.48816 2.1549C5.80072 1.84234 6.22464 1.66675 6.66667 1.66675H13.3333C13.7754 1.66675 14.1993 1.84234 14.5118 2.1549C14.8244 2.46746 15 2.89139 15 3.33341V18.3334H5Z" stroke="#0D8CFF" stroke-width="1.66667" stroke-linecap="round" stroke-linejoin="round"/>
<path d="M5.00001 10H3.33334C2.89131 10 2.46739 10.1756 2.15483 10.4882C1.84227 10.8007 1.66667 11.2246 1.66667 11.6667V16.6667C1.66667 17.1087 1.84227 17.5326 2.15483 17.8452C2.46739 18.1577 2.89131 18.3333 3.33334 18.3333H5.00001" stroke="#0D8CFF" stroke-width="1.66667" stroke-linecap="round" stroke-linejoin="round"/>
<path d="M15 7.5H16.6667C17.1087 7.5 17.5326 7.6756 17.8452 7.98816C18.1577 8.30072 18.3333 8.72464 18.3333 9.16667V16.6667C18.3333 17.1087 18.1577 17.5326 17.8452 17.8452C17.5326 18.1577 17.1087 18.3333 16.6667 18.3333H15" stroke="#0D8CFF" stroke-width="1.66667" stroke-linecap="round" stroke-linejoin="round"/>
<path d="M8.33333 5H11.6667" stroke="#0D8CFF" stroke-width="1.66667" stroke-linecap="round" stroke-linejoin="round"/>
<path d="M8.33333 8.33325H11.6667" stroke="#0D8CFF" stroke-width="1.66667" stroke-linecap="round" stroke-linejoin="round"/>
<path d="M8.33333 11.6667H11.6667" stroke="#0D8CFF" stroke-width="1.66667" stroke-linecap="round" stroke-linejoin="round"/>
<path d="M8.33333 15H11.6667" stroke="#0D8CFF" stroke-width="1.66667" stroke-linecap="round" stroke-linejoin="round"/>
</svg>
