<svg width="40" height="40" viewBox="0 0 40 40" fill="none" xmlns="http://www.w3.org/2000/svg">
<path d="M35.7 18.2034C35.9984 18.0717 36.2516 17.8555 36.4282 17.5814C36.6049 17.3073 36.6973 16.9873 36.6939 16.6613C36.6905 16.3352 36.5916 16.0172 36.4093 15.7468C36.227 15.4764 35.9694 15.2655 35.6684 15.14L21.3834 8.63336C20.9491 8.43527 20.4773 8.33276 20 8.33276C19.5227 8.33276 19.051 8.43527 18.6167 8.63336L4.33336 15.1334C4.03664 15.2633 3.78422 15.4769 3.60697 15.7481C3.42972 16.0192 3.33533 16.3361 3.33533 16.66C3.33533 16.984 3.42972 17.3009 3.60697 17.572C3.78422 17.8431 4.03664 18.0567 4.33336 18.1867L18.6167 24.7C19.051 24.8981 19.5227 25.0006 20 25.0006C20.4773 25.0006 20.9491 24.8981 21.3834 24.7L35.7 18.2034Z" stroke="#6B7280" stroke-width="3.33333" stroke-linecap="round" stroke-linejoin="round"/>
<path d="M36.6666 16.6667V26.6667" stroke="#6B7280" stroke-width="3.33333" stroke-linecap="round" stroke-linejoin="round"/>
<path d="M10 20.8333V26.6666C10 27.9927 11.0536 29.2644 12.9289 30.2021C14.8043 31.1398 17.3478 31.6666 20 31.6666C22.6522 31.6666 25.1957 31.1398 27.0711 30.2021C28.9464 29.2644 30 27.9927 30 26.6666V20.8333" stroke="#6B7280" stroke-width="3.33333" stroke-linecap="round" stroke-linejoin="round"/>
</svg>
