<svg width="16" height="16" viewBox="0 0 16 16" fill="none" xmlns="http://www.w3.org/2000/svg">
<path d="M10.1333 2C10.485 2.00501 10.8205 2.14878 11.0667 2.4L13.6 4.93333C13.8512 5.17951 13.995 5.51497 14 5.86667V12.6667C14 13.0203 13.8595 13.3594 13.6095 13.6095C13.3594 13.8595 13.0203 14 12.6667 14H3.33333C2.97971 14 2.64057 13.8595 2.39052 13.6095C2.14048 13.3594 2 13.0203 2 12.6667V3.33333C2 2.97971 2.14048 2.64057 2.39052 2.39052C2.64057 2.14048 2.97971 2 3.33333 2H10.1333Z" stroke="#737373" stroke-width="1.33333" stroke-linecap="round" stroke-linejoin="round"/>
<path d="M11.3337 13.9998V9.33317C11.3337 9.15636 11.2634 8.98679 11.1384 8.86177C11.0134 8.73674 10.8438 8.6665 10.667 8.6665H5.33366C5.15685 8.6665 4.98728 8.73674 4.86225 8.86177C4.73723 8.98679 4.66699 9.15636 4.66699 9.33317V13.9998" stroke="#737373" stroke-width="1.33333" stroke-linecap="round" stroke-linejoin="round"/>
<path d="M4.66699 2V4.66667C4.66699 4.84348 4.73723 5.01305 4.86225 5.13807C4.98728 5.2631 5.15685 5.33333 5.33366 5.33333H10.0003" stroke="#737373" stroke-width="1.33333" stroke-linecap="round" stroke-linejoin="round"/>
</svg>
