<svg width="14" height="14" viewBox="0 0 14 14" fill="none" xmlns="http://www.w3.org/2000/svg">
<path d="M11.6673 7.58294C11.6673 10.4996 9.62565 11.9579 7.19898 12.8038C7.07191 12.8468 6.93388 12.8448 6.80815 12.7979C4.37565 11.9579 2.33398 10.4996 2.33398 7.58294V3.49961C2.33398 3.3449 2.39544 3.19653 2.50484 3.08713C2.61424 2.97774 2.76261 2.91628 2.91732 2.91628C4.08398 2.91628 5.54232 2.21628 6.55732 1.32961C6.6809 1.22403 6.83811 1.16602 7.00065 1.16602C7.16319 1.16602 7.3204 1.22403 7.44398 1.32961C8.46482 2.22211 9.91732 2.91628 11.084 2.91628C11.2387 2.91628 11.3871 2.97774 11.4965 3.08713C11.6059 3.19653 11.6673 3.3449 11.6673 3.49961V7.58294Z" stroke="#2BAB6F" stroke-width="1.16667" stroke-linecap="round" stroke-linejoin="round"/>
</svg>
