<svg width="16" height="18" viewBox="0 0 16 18" fill="none" xmlns="http://www.w3.org/2000/svg">
<path d="M13.3327 10.6666C13.3327 14 10.9993 15.6666 8.22602 16.6333C8.08079 16.6825 7.92304 16.6802 7.77935 16.6266C4.99935 15.6666 2.66602 14 2.66602 10.6666V5.99997C2.66602 5.82316 2.73625 5.65359 2.86128 5.52857C2.9863 5.40355 3.15587 5.33331 3.33268 5.33331C4.66602 5.33331 6.33268 4.53331 7.49268 3.51997C7.63392 3.39931 7.81358 3.33301 7.99935 3.33301C8.18511 3.33301 8.36478 3.39931 8.50602 3.51997C9.67268 4.53997 11.3327 5.33331 12.666 5.33331C12.8428 5.33331 13.0124 5.40355 13.1374 5.52857C13.2624 5.65359 13.3327 5.82316 13.3327 5.99997V10.6666Z" stroke="#0A91FF" stroke-width="1.33333" stroke-linecap="round" stroke-linejoin="round"/>
</svg>
