<svg width="20" height="20" viewBox="0 0 20 20" fill="none" xmlns="http://www.w3.org/2000/svg">
<path d="M14.167 10H2.50033C2.27931 10 2.06735 10.0878 1.91107 10.2441C1.75479 10.4004 1.66699 10.6123 1.66699 10.8333V12.5C1.66699 12.721 1.75479 12.933 1.91107 13.0893C2.06735 13.2455 2.27931 13.3333 2.50033 13.3333H14.167" stroke="#0D8CFF" stroke-width="1.66667" stroke-linecap="round" stroke-linejoin="round"/>
<path d="M14.9997 6.66667C14.9997 4.58333 13.333 4.58333 13.333 2.5" stroke="#0D8CFF" stroke-width="1.66667" stroke-linecap="round" stroke-linejoin="round"/>
<path d="M17.5 13.3333C17.721 13.3333 17.933 13.2455 18.0893 13.0893C18.2455 12.933 18.3333 12.721 18.3333 12.5V10.8333C18.3333 10.6123 18.2455 10.4004 18.0893 10.2441C17.933 10.0878 17.721 10 17.5 10" stroke="#0D8CFF" stroke-width="1.66667" stroke-linecap="round" stroke-linejoin="round"/>
<path d="M18.3337 6.66667C18.3337 4.58333 16.667 4.58333 16.667 2.5" stroke="#0D8CFF" stroke-width="1.66667" stroke-linecap="round" stroke-linejoin="round"/>
<path d="M5.83301 10V13.3333" stroke="#0D8CFF" stroke-width="1.66667" stroke-linecap="round" stroke-linejoin="round"/>
</svg>
