<svg width="16" height="16" viewBox="0 0 16 16" fill="none" xmlns="http://www.w3.org/2000/svg">
<path d="M13.3332 5.99984V3.99984C13.3332 3.64622 13.1927 3.30708 12.9426 3.05703C12.6926 2.80698 12.3535 2.6665 11.9998 2.6665H3.99984C3.64622 2.6665 3.30708 2.80698 3.05703 3.05703C2.80698 3.30708 2.6665 3.64622 2.6665 3.99984V5.99984" stroke="#6C7C93" stroke-width="1.33333" stroke-linecap="round" stroke-linejoin="round"/>
<path d="M1.3335 10.6667C1.3335 11.0203 1.47397 11.3594 1.72402 11.6095C1.97407 11.8595 2.31321 12 2.66683 12H13.3335C13.6871 12 14.0263 11.8595 14.2763 11.6095C14.5264 11.3594 14.6668 11.0203 14.6668 10.6667V7.33333C14.6668 6.97971 14.5264 6.64057 14.2763 6.39052C14.0263 6.14048 13.6871 6 13.3335 6C12.9799 6 12.6407 6.14048 12.3907 6.39052C12.1406 6.64057 12.0002 6.97971 12.0002 7.33333V8.33333C12.0002 8.42174 11.965 8.50652 11.9025 8.56904C11.84 8.63155 11.7552 8.66667 11.6668 8.66667H4.3335C4.24509 8.66667 4.16031 8.63155 4.09779 8.56904C4.03528 8.50652 4.00016 8.42174 4.00016 8.33333V7.33333C4.00016 6.97971 3.85969 6.64057 3.60964 6.39052C3.35959 6.14048 3.02045 6 2.66683 6C2.31321 6 1.97407 6.14048 1.72402 6.39052C1.47397 6.64057 1.3335 6.97971 1.3335 7.33333V10.6667Z" stroke="#6C7C93" stroke-width="1.33333" stroke-linecap="round" stroke-linejoin="round"/>
<path d="M2.6665 12V13.3333" stroke="#6C7C93" stroke-width="1.33333" stroke-linecap="round" stroke-linejoin="round"/>
<path d="M13.3335 12V13.3333" stroke="#6C7C93" stroke-width="1.33333" stroke-linecap="round" stroke-linejoin="round"/>
<path d="M8 2.6665V8.6665" stroke="#6C7C93" stroke-width="1.33333" stroke-linecap="round" stroke-linejoin="round"/>
</svg>
