<svg width="16" height="16" viewBox="0 0 16 16" fill="none" xmlns="http://www.w3.org/2000/svg">
<path d="M5.33333 2H3.33333C2.97971 2 2.64057 2.14048 2.39052 2.39052C2.14048 2.64057 2 2.97971 2 3.33333V5.33333" stroke="#627084" stroke-width="1.33333" stroke-linecap="round" stroke-linejoin="round"/>
<path d="M13.9998 5.33333V3.33333C13.9998 2.97971 13.8594 2.64057 13.6093 2.39052C13.3593 2.14048 13.0201 2 12.6665 2H10.6665" stroke="#627084" stroke-width="1.33333" stroke-linecap="round" stroke-linejoin="round"/>
<path d="M2 10.666V12.666C2 13.0196 2.14048 13.3588 2.39052 13.6088C2.64057 13.8589 2.97971 13.9993 3.33333 13.9993H5.33333" stroke="#627084" stroke-width="1.33333" stroke-linecap="round" stroke-linejoin="round"/>
<path d="M10.6665 13.9993H12.6665C13.0201 13.9993 13.3593 13.8589 13.6093 13.6088C13.8594 13.3588 13.9998 13.0196 13.9998 12.666V10.666" stroke="#627084" stroke-width="1.33333" stroke-linecap="round" stroke-linejoin="round"/>
</svg>
