<svg width="16" height="16" viewBox="0 0 16 16" fill="none" xmlns="http://www.w3.org/2000/svg">
<path d="M2.66634 6.66634C1.93301 6.66634 1.33301 6.06634 1.33301 5.33301V2.66634C1.33301 1.93301 1.93301 1.33301 2.66634 1.33301H5.33301C6.06634 1.33301 6.66634 1.93301 6.66634 2.66634" stroke="#0D8CFF" stroke-width="1.33333" stroke-linecap="round" stroke-linejoin="round"/>
<path d="M6.66634 10.6663C5.93301 10.6663 5.33301 10.0663 5.33301 9.33301V6.66634C5.33301 5.93301 5.93301 5.33301 6.66634 5.33301H9.33301C10.0663 5.33301 10.6663 5.93301 10.6663 6.66634" stroke="#0D8CFF" stroke-width="1.33333" stroke-linecap="round" stroke-linejoin="round"/>
<path d="M13.333 9.33301H10.6663C9.92996 9.33301 9.33301 9.92996 9.33301 10.6663V13.333C9.33301 14.0694 9.92996 14.6663 10.6663 14.6663H13.333C14.0694 14.6663 14.6663 14.0694 14.6663 13.333V10.6663C14.6663 9.92996 14.0694 9.33301 13.333 9.33301Z" stroke="#0D8CFF" stroke-width="1.33333" stroke-linecap="round" stroke-linejoin="round"/>
</svg>
