<svg width="28" height="28" viewBox="0 0 28 28" fill="none" xmlns="http://www.w3.org/2000/svg">
<path d="M11.594 18.0833C11.4898 17.6795 11.2794 17.3111 10.9845 17.0162C10.6897 16.7214 10.3212 16.511 9.91749 16.4068L2.75999 14.5611C2.63788 14.5265 2.5304 14.4529 2.45387 14.3517C2.37734 14.2504 2.33594 14.1269 2.33594 14C2.33594 13.873 2.37734 13.7496 2.45387 13.6483C2.5304 13.547 2.63788 13.4735 2.75999 13.4388L9.91749 11.592C10.3211 11.4879 10.6895 11.2776 10.9843 10.983C11.2791 10.6884 11.4897 10.3202 11.594 9.91663L13.4397 2.75913C13.474 2.63654 13.5474 2.52853 13.6489 2.45159C13.7503 2.37465 13.8741 2.33301 14.0014 2.33301C14.1287 2.33301 14.2525 2.37465 14.354 2.45159C14.4554 2.52853 14.5288 2.63654 14.5632 2.75913L16.4077 9.91663C16.5118 10.3204 16.7223 10.6888 17.0171 10.9837C17.3119 11.2785 17.6804 11.489 18.0842 11.5931L25.2417 13.4376C25.3647 13.4716 25.4733 13.545 25.5506 13.6466C25.628 13.7481 25.6699 13.8723 25.6699 14C25.6699 14.1276 25.628 14.2518 25.5506 14.3534C25.4733 14.455 25.3647 14.5283 25.2417 14.5623L18.0842 16.4068C17.6804 16.511 17.3119 16.7214 17.0171 17.0162C16.7223 17.3111 16.5118 17.6795 16.4077 18.0833L14.562 25.2408C14.5277 25.3634 14.4542 25.4714 14.3528 25.5483C14.2514 25.6253 14.1275 25.6669 14.0002 25.6669C13.8729 25.6669 13.7491 25.6253 13.6477 25.5483C13.5463 25.4714 13.4728 25.3634 13.4385 25.2408L11.594 18.0833Z" stroke="#E85530" stroke-width="2.33333" stroke-linecap="round" stroke-linejoin="round"/>
<path d="M23.334 3.5V8.16667" stroke="#E85530" stroke-width="2.33333" stroke-linecap="round" stroke-linejoin="round"/>
<path d="M25.6667 5.83301H21" stroke="#E85530" stroke-width="2.33333" stroke-linecap="round" stroke-linejoin="round"/>
<path d="M4.66602 19.833V22.1663" stroke="#E85530" stroke-width="2.33333" stroke-linecap="round" stroke-linejoin="round"/>
<path d="M5.83333 21H3.5" stroke="#E85530" stroke-width="2.33333" stroke-linecap="round" stroke-linejoin="round"/>
</svg>
