<svg width="15" height="15" viewBox="0 0 15 15" fill="none" xmlns="http://www.w3.org/2000/svg">
<path d="M7.01819 0.863344C7.04741 0.804318 7.09254 0.754632 7.14849 0.719894C7.20445 0.685156 7.269 0.666748 7.33486 0.666748C7.40072 0.666748 7.46527 0.685156 7.52122 0.719894C7.57718 0.754632 7.62231 0.804318 7.65153 0.863344L9.19153 3.98268C9.29298 4.18799 9.44273 4.36562 9.62794 4.50031C9.81315 4.63501 10.0283 4.72275 10.2549 4.75601L13.6989 5.26001C13.7641 5.26947 13.8254 5.29699 13.8759 5.33948C13.9263 5.38196 13.9638 5.43771 13.9842 5.50041C14.0046 5.56312 14.007 5.63028 13.9912 5.6943C13.9755 5.75832 13.9421 5.81665 13.8949 5.86268L11.4042 8.28801C11.2399 8.44808 11.117 8.64567 11.0461 8.86376C10.9751 9.08186 10.9582 9.31394 10.9969 9.54001L11.5849 12.9667C11.5964 13.0319 11.5893 13.0991 11.5645 13.1605C11.5397 13.2219 11.4981 13.2751 11.4446 13.314C11.391 13.3529 11.3275 13.376 11.2614 13.3806C11.1954 13.3852 11.1293 13.3711 11.0709 13.34L7.99219 11.7213C7.78934 11.6148 7.56365 11.5592 7.33453 11.5592C7.10541 11.5592 6.87971 11.6148 6.67686 11.7213L3.59886 13.34C3.54041 13.371 3.47446 13.3849 3.40849 13.3802C3.34253 13.3755 3.2792 13.3524 3.22572 13.3135C3.17224 13.2746 3.13075 13.2215 3.10596 13.1602C3.08118 13.0988 3.0741 13.0318 3.08553 12.9667L3.67286 9.54068C3.71166 9.3145 3.69485 9.08228 3.62388 8.86404C3.55292 8.64581 3.42993 8.44811 3.26553 8.28801L0.774859 5.86334C0.727255 5.81737 0.693521 5.75894 0.6775 5.69473C0.66148 5.63051 0.663817 5.56309 0.684245 5.50014C0.704672 5.43719 0.74237 5.38124 0.793043 5.33867C0.843716 5.29609 0.905328 5.26861 0.970859 5.25934L4.41419 4.75601C4.64103 4.72301 4.85645 4.63538 5.04191 4.50067C5.22738 4.36596 5.37733 4.18819 5.47886 3.98268L7.01819 0.863344Z" stroke="#20AC6B" stroke-width="1.33333" stroke-linecap="round" stroke-linejoin="round"/>
</svg>
