<svg width="20" height="20" viewBox="0 0 20 20" fill="none" xmlns="http://www.w3.org/2000/svg">
<path d="M10.667 16.333C10.8783 16.4915 11.1242 16.5974 11.3844 16.6422C11.6447 16.687 11.9119 16.6693 12.1639 16.5905C12.416 16.5118 12.6458 16.3743 12.8343 16.1893C13.0228 16.0044 13.1646 15.7773 13.2481 15.5267C13.3316 15.2762 13.3544 15.0094 13.3146 14.7483C13.2748 14.4873 13.1735 14.2394 13.0191 14.0252C12.8646 13.8109 12.6615 13.6364 12.4265 13.5161C12.1914 13.3958 11.9311 13.333 11.667 13.333H1.66699" stroke="#627084" stroke-width="1.66667" stroke-linecap="round" stroke-linejoin="round"/>
<path d="M14.5837 6.66634C14.7967 6.38225 15.0789 6.15733 15.4033 6.01296C15.7278 5.86858 16.0837 5.80953 16.4374 5.84143C16.7911 5.87332 17.1308 5.99509 17.4241 6.19517C17.7175 6.39526 17.9549 6.66702 18.1137 6.98465C18.2725 7.30227 18.3475 7.65522 18.3316 8.00998C18.3156 8.36474 18.2092 8.70953 18.0225 9.01162C17.8358 9.3137 17.575 9.56304 17.2648 9.73597C16.9547 9.9089 16.6054 9.99967 16.2503 9.99967H1.66699" stroke="#627084" stroke-width="1.66667" stroke-linecap="round" stroke-linejoin="round"/>
<path d="M8.16699 3.66634C8.37826 3.50789 8.62416 3.40191 8.88442 3.35714C9.14469 3.31236 9.41186 3.33008 9.66394 3.40882C9.91601 3.48756 10.1458 3.62508 10.3343 3.81003C10.5228 3.99499 10.6646 4.22209 10.7481 4.47263C10.8316 4.72316 10.8544 4.98996 10.8146 5.25102C10.7748 5.51209 10.6735 5.75995 10.5191 5.97419C10.3646 6.18843 10.1615 6.36291 9.92646 6.48325C9.69138 6.60359 9.43108 6.66634 9.16699 6.66634H1.66699" stroke="#627084" stroke-width="1.66667" stroke-linecap="round" stroke-linejoin="round"/>
</svg>
