<svg width="20" height="20" viewBox="0 0 20 20" fill="none" xmlns="http://www.w3.org/2000/svg">
<path d="M13.333 10.8334L17.6855 13.7351C17.7483 13.7768 17.8211 13.8008 17.8964 13.8044C17.9717 13.808 18.0466 13.7911 18.113 13.7555C18.1795 13.7199 18.235 13.667 18.2737 13.6024C18.3125 13.5377 18.333 13.4638 18.333 13.3884V6.55839C18.333 6.48508 18.3137 6.41306 18.277 6.3496C18.2403 6.28614 18.1875 6.23349 18.1239 6.19697C18.0603 6.16045 17.9882 6.14136 17.9149 6.1416C17.8416 6.14185 17.7697 6.16144 17.7063 6.19839L13.333 8.75006" stroke="#6C7C93" stroke-width="1.66667" stroke-linecap="round" stroke-linejoin="round"/>
<path d="M11.667 5H3.33366C2.41318 5 1.66699 5.74619 1.66699 6.66667V13.3333C1.66699 14.2538 2.41318 15 3.33366 15H11.667C12.5875 15 13.3337 14.2538 13.3337 13.3333V6.66667C13.3337 5.74619 12.5875 5 11.667 5Z" stroke="#6C7C93" stroke-width="1.66667" stroke-linecap="round" stroke-linejoin="round"/>
</svg>
