<svg width="32" height="32" viewBox="0 0 32 32" fill="none" xmlns="http://www.w3.org/2000/svg">
<path d="M4 14.6667L28 8V24L4 18.6667V14.6667Z" stroke="#0A91FF" stroke-width="2.66667" stroke-linecap="round" stroke-linejoin="round"/>
<path d="M15.4676 22.3999C15.3275 22.9077 15.0888 23.3829 14.7651 23.7985C14.4413 24.214 14.0389 24.5617 13.5808 24.8217C13.1227 25.0817 12.6179 25.2489 12.0952 25.3138C11.5724 25.3787 11.0421 25.34 10.5343 25.1999C10.0265 25.0599 9.55128 24.8211 9.13576 24.4974C8.72024 24.1737 8.37255 23.7713 8.11255 23.3132C7.85254 22.8551 7.68531 22.3502 7.62041 21.8275C7.55551 21.3048 7.5942 20.7744 7.73427 20.2666" stroke="#0A91FF" stroke-width="2.66667" stroke-linecap="round" stroke-linejoin="round"/>
</svg>
