<svg width="16" height="16" viewBox="0 0 16 16" fill="none" xmlns="http://www.w3.org/2000/svg">
<path d="M1.33301 3.99967C1.73301 4.33301 2.13301 4.66634 2.99967 4.66634C4.66634 4.66634 4.66634 3.33301 6.33301 3.33301C8.06634 3.33301 7.93301 4.66634 9.66634 4.66634C11.333 4.66634 11.333 3.33301 12.9997 3.33301C13.8663 3.33301 14.2663 3.66634 14.6663 3.99967" stroke="#737373" stroke-width="1.33333" stroke-linecap="round" stroke-linejoin="round"/>
<path d="M1.33301 7.99967C1.73301 8.33301 2.13301 8.66634 2.99967 8.66634C4.66634 8.66634 4.66634 7.33301 6.33301 7.33301C8.06634 7.33301 7.93301 8.66634 9.66634 8.66634C11.333 8.66634 11.333 7.33301 12.9997 7.33301C13.8663 7.33301 14.2663 7.66634 14.6663 7.99967" stroke="#737373" stroke-width="1.33333" stroke-linecap="round" stroke-linejoin="round"/>
<path d="M1.33301 11.9997C1.73301 12.333 2.13301 12.6663 2.99967 12.6663C4.66634 12.6663 4.66634 11.333 6.33301 11.333C8.06634 11.333 7.93301 12.6663 9.66634 12.6663C11.333 12.6663 11.333 11.333 12.9997 11.333C13.8663 11.333 14.2663 11.6663 14.6663 11.9997" stroke="#737373" stroke-width="1.33333" stroke-linecap="round" stroke-linejoin="round"/>
</svg>
