<svg width="24" height="24" viewBox="0 0 24 24" fill="none" xmlns="http://www.w3.org/2000/svg">
<path d="M12.5 22H18C18.5304 22 19.0391 21.7893 19.4142 21.4142C19.7893 21.0391 20 20.5304 20 20V7L15 2H6C5.46957 2 4.96086 2.21071 4.58579 2.58579C4.21071 2.96086 4 3.46957 4 4V13.5" stroke="#0F1729" stroke-width="2" stroke-linecap="round" stroke-linejoin="round"/>
<path d="M14 2V6C14 6.53043 14.2107 7.03914 14.5858 7.41421C14.9609 7.78929 15.4696 8 16 8H20" stroke="#0F1729" stroke-width="2" stroke-linecap="round" stroke-linejoin="round"/>
<path d="M13.378 15.6261C13.5752 15.4289 13.7317 15.1947 13.8384 14.937C13.9452 14.6793 14.0001 14.4031 14.0001 14.1241C14.0001 13.8452 13.9452 13.569 13.8384 13.3113C13.7317 13.0536 13.5752 12.8194 13.378 12.6221C13.1807 12.4249 12.9466 12.2684 12.6889 12.1617C12.4311 12.0549 12.1549 12 11.876 12C11.597 12 11.3208 12.0549 11.0631 12.1617C10.8054 12.2684 10.5712 12.4249 10.374 12.6221L5.36398 17.6341C5.12622 17.8718 4.9522 18.1655 4.85798 18.4881L4.02098 21.3581C3.99588 21.4442 3.99437 21.5354 4.01662 21.6222C4.03887 21.7091 4.08404 21.7883 4.14742 21.8517C4.2108 21.9151 4.29006 21.9603 4.37689 21.9825C4.46372 22.0048 4.55493 22.0032 4.64098 21.9781L7.51098 21.1411C7.83364 21.0469 8.12735 20.8729 8.36498 20.6351L13.378 15.6261Z" stroke="#0F1729" stroke-width="2" stroke-linecap="round" stroke-linejoin="round"/>
</svg>
