   <svg width="20" height="20" viewBox="0 0 20 20" fill="none" xmlns="http://www.w3.org/2000/svg">
                  <path d="M12.5007 1.66675H5.00065C4.55862 1.66675 4.1347 1.84234 3.82214 2.1549C3.50958 2.46746 3.33398 2.89139 3.33398 3.33341V16.6667C3.33398 17.1088 3.50958 17.5327 3.82214 17.8453C4.1347 18.1578 4.55862 18.3334 5.00065 18.3334H15.0007C15.4427 18.3334 15.8666 18.1578 16.1792 17.8453C16.4917 17.5327 16.6673 17.1088 16.6673 16.6667V5.83341L12.5007 1.66675Z" stroke="#0D8CFF" strokeWidth="1.66667" strokeLinecap="round" strokeLinejoin="round" />
                  <path d="M11.666 1.66675V5.00008C11.666 5.44211 11.8416 5.86603 12.1542 6.17859C12.4667 6.49115 12.8907 6.66675 13.3327 6.66675H16.666" stroke="#0D8CFF" strokeWidth="1.66667" strokeLinecap="round" strokeLinejoin="round" />
                  <path d="M8.33268 7.5H6.66602" stroke="#0D8CFF" strokeWidth="1.66667" strokeLinecap="round" strokeLinejoin="round" />
                  <path d="M13.3327 10.8333H6.66602" stroke="#0D8CFF" strokeWidth="1.66667" strokeLinecap="round" strokeLinejoin="round" />
                  <path d="M13.3327 14.1667H6.66602" stroke="#0D8CFF" strokeWidth="1.66667" strokeLinecap="round" strokeLinejoin="round" />
                </svg>