<svg width="16" height="16" viewBox="0 0 16 16" fill="none" xmlns="http://www.w3.org/2000/svg">
<path d="M8 13.3333H14" stroke="#16A34A" stroke-width="1.33333" stroke-linecap="round" stroke-linejoin="round"/>
<path d="M10.9167 2.41473C11.1821 2.14934 11.542 2.00024 11.9173 2.00024C12.2927 2.00024 12.6526 2.14934 12.918 2.41473C13.1834 2.68013 13.3325 3.04008 13.3325 3.4154C13.3325 3.79072 13.1834 4.15067 12.918 4.41607L4.91133 12.4234C4.75273 12.582 4.55668 12.698 4.34133 12.7607L2.42667 13.3194C2.3693 13.3361 2.30849 13.3371 2.25061 13.3223C2.19272 13.3075 2.13988 13.2774 2.09763 13.2351C2.05538 13.1929 2.02526 13.14 2.01043 13.0821C1.9956 13.0242 1.9966 12.9634 2.01333 12.9061L2.572 10.9914C2.63481 10.7763 2.75083 10.5805 2.90933 10.4221L10.9167 2.41473Z" stroke="#16A34A" stroke-width="1.33333" stroke-linecap="round" stroke-linejoin="round"/>
</svg>
