<svg width="18" height="18" viewBox="0 0 18 18" fill="none" xmlns="http://www.w3.org/2000/svg">
<g clip-path="url(#clip0_106_11321)">
<path d="M8.0668 3.00017H2.93346C2.54448 3.00017 2.17143 3.15821 1.89637 3.43951C1.62132 3.72081 1.4668 4.10234 1.4668 4.50017V15.0002C1.4668 15.398 1.62132 15.7795 1.89637 16.0608C2.17143 16.3421 2.54448 16.5002 2.93346 16.5002H13.2001C13.5891 16.5002 13.9622 16.3421 14.2372 16.0608C14.5123 15.7795 14.6668 15.398 14.6668 15.0002V9.75017M13.5668 1.87517C13.8585 1.5768 14.2542 1.40918 14.6668 1.40918C15.0794 1.40918 15.4751 1.5768 15.7668 1.87517C16.0585 2.17354 16.2224 2.57821 16.2224 3.00017C16.2224 3.42213 16.0585 3.8268 15.7668 4.12517L8.80013 11.2502L5.8668 12.0002L6.60013 9.00017L13.5668 1.87517Z" stroke="#1C1E21" stroke-width="1.66667" stroke-linecap="round" stroke-linejoin="round"/>
</g>
<defs>
<clipPath id="clip0_106_11321">
<rect width="17.6" height="18" fill="white"/>
</clipPath>
</defs>
</svg>
