<svg width="9" height="11" viewBox="0 0 9 11" fill="none" xmlns="http://www.w3.org/2000/svg">
<path d="M6.94087 3.73793L6.48349 4.73224H0.000532694L0.358487 3.73793H6.94087ZM6.08576 5.72656L5.62837 6.72088H0.000532694L0.358487 5.72656H6.08576ZM8.11417 1.05327L7.6369 2.08736C7.42478 1.89512 7.20105 1.7294 6.96573 1.5902C6.73041 1.45099 6.48349 1.34328 6.22496 1.26705C5.96644 1.19081 5.69466 1.1527 5.40962 1.1527C4.84618 1.1527 4.33907 1.30848 3.88832 1.62003C3.43756 1.93158 3.08126 2.39062 2.81942 2.99716C2.55759 3.60369 2.42667 4.34777 2.42667 5.2294C2.42667 6.11103 2.55759 6.85511 2.81942 7.46165C3.08126 8.06818 3.43756 8.52723 3.88832 8.83878C4.33907 9.15033 4.84618 9.30611 5.40962 9.30611C5.70129 9.30611 5.97639 9.26799 6.23491 9.19176C6.49675 9.11553 6.74035 9.01113 6.96573 8.87855C7.19442 8.74598 7.40489 8.59683 7.59712 8.43111L8.09428 9.4652C7.74627 9.79332 7.3386 10.0419 6.87127 10.2109C6.40394 10.3767 5.91673 10.4595 5.40962 10.4595C4.59428 10.4595 3.87174 10.2474 3.24201 9.82315C2.61559 9.39891 2.1234 8.79569 1.76545 8.01349C1.41081 7.2313 1.23349 6.30327 1.23349 5.2294C1.23349 4.15554 1.41081 3.22751 1.76545 2.44531C2.1234 1.66312 2.61559 1.0599 3.24201 0.635653C3.87174 0.211411 4.59428 -0.000710607 5.40962 -0.000710607C5.93661 -0.000710607 6.4288 0.0904352 6.88619 0.272727C7.34689 0.455019 7.75621 0.715199 8.11417 1.05327Z" fill="#676F7E"/>
</svg>
