<svg width="18" height="18" viewBox="0 0 18 18" fill="none" xmlns="http://www.w3.org/2000/svg">
<path d="M10.2669 1.5H4.40026C4.01128 1.5 3.63822 1.65804 3.36317 1.93934C3.08812 2.22064 2.93359 2.60218 2.93359 3V15C2.93359 15.3978 3.08812 15.7794 3.36317 16.0607C3.63822 16.342 4.01128 16.5 4.40026 16.5H13.2003C13.5892 16.5 13.9623 16.342 14.2374 16.0607C14.5124 15.7794 14.6669 15.3978 14.6669 15V6M10.2669 1.5L14.6669 6M10.2669 1.5L10.2669 6H14.6669M11.7336 9.75H5.86693M11.7336 12.75H5.86693M7.3336 6.75H5.86693" stroke="#1C1E21" stroke-width="1.66667" stroke-linecap="round" stroke-linejoin="round"/>
</svg>
