<svg width="18" height="18" viewBox="0 0 18 18" fill="none" xmlns="http://www.w3.org/2000/svg">
<path d="M15.3992 8.62502C15.4017 9.61492 15.1756 10.5914 14.7392 11.475C14.2218 12.5338 13.4264 13.4244 12.442 14.047C11.4577 14.6696 10.3233 14.9996 9.16589 15C8.19798 15.0026 7.24317 14.7713 6.37922 14.325L2.19922 15.75L3.59255 11.475C3.15617 10.5914 2.93003 9.61492 2.93255 8.62502C2.933 7.44134 3.25567 6.28116 3.86441 5.27443C4.47316 4.26771 5.34394 3.4542 6.37922 2.92502C7.24317 2.47872 8.19798 2.24744 9.16589 2.25002H9.53255C11.0611 2.33627 12.5048 2.99609 13.5873 4.10317C14.6697 5.21024 15.3149 6.68676 15.3992 8.25002V8.62502Z" stroke="#1C1E21" stroke-width="1.66667" stroke-linecap="round" stroke-linejoin="round"/>
</svg>
