<svg width="16" height="16" viewBox="0 0 16 16" fill="none" xmlns="http://www.w3.org/2000/svg">
<path d="M8.00065 8.66732C8.36884 8.66732 8.66732 8.36884 8.66732 8.00065C8.66732 7.63246 8.36884 7.33398 8.00065 7.33398C7.63246 7.33398 7.33398 7.63246 7.33398 8.00065C7.33398 8.36884 7.63246 8.66732 8.00065 8.66732Z" stroke="black" stroke-width="1.33333" stroke-linecap="round" stroke-linejoin="round"/>
<path d="M12.6667 8.66732C13.0349 8.66732 13.3333 8.36884 13.3333 8.00065C13.3333 7.63246 13.0349 7.33398 12.6667 7.33398C12.2985 7.33398 12 7.63246 12 8.00065C12 8.36884 12.2985 8.66732 12.6667 8.66732Z" stroke="black" stroke-width="1.33333" stroke-linecap="round" stroke-linejoin="round"/>
<path d="M3.33268 8.66732C3.70087 8.66732 3.99935 8.36884 3.99935 8.00065C3.99935 7.63246 3.70087 7.33398 3.33268 7.33398C2.96449 7.33398 2.66602 7.63246 2.66602 8.00065C2.66602 8.36884 2.96449 8.66732 3.33268 8.66732Z" stroke="black" stroke-width="1.33333" stroke-linecap="round" stroke-linejoin="round"/>
</svg>
