<svg width="16" height="18" viewBox="0 0 16 18" fill="none" xmlns="http://www.w3.org/2000/svg">
<path d="M13.3337 10.6676C13.3337 14.001 11.0003 15.6676 8.22699 16.6343C8.08177 16.6835 7.92402 16.6811 7.78033 16.6276C5.00033 15.6676 2.66699 14.001 2.66699 10.6676V6.00095C2.66699 5.82414 2.73723 5.65457 2.86225 5.52955C2.98728 5.40452 3.15685 5.33428 3.33366 5.33428C4.66699 5.33428 6.33366 4.53428 7.49366 3.52095C7.6349 3.40028 7.81456 3.33398 8.00033 3.33398C8.18609 3.33398 8.36576 3.40028 8.50699 3.52095C9.67366 4.54095 11.3337 5.33428 12.667 5.33428C12.8438 5.33428 13.0134 5.40452 13.1384 5.52955C13.2634 5.65457 13.3337 5.82414 13.3337 6.00095V10.6676Z" stroke="#21C45D" stroke-width="1.33333" stroke-linecap="round" stroke-linejoin="round"/>
</svg>
