<svg width="16" height="16" viewBox="0 0 16 16" fill="none" xmlns="http://www.w3.org/2000/svg">
<path d="M10.6663 14V12.6667C10.6663 11.9594 10.3854 11.2811 9.88529 10.781C9.3852 10.281 8.70692 10 7.99967 10H3.99967C3.29243 10 2.61415 10.281 2.11406 10.781C1.61396 11.2811 1.33301 11.9594 1.33301 12.6667V14" stroke="#0D91FD" stroke-width="1.33333" stroke-linecap="round" stroke-linejoin="round"/>
<path d="M5.99967 7.33333C7.47243 7.33333 8.66634 6.13943 8.66634 4.66667C8.66634 3.19391 7.47243 2 5.99967 2C4.52692 2 3.33301 3.19391 3.33301 4.66667C3.33301 6.13943 4.52692 7.33333 5.99967 7.33333Z" stroke="#0D91FD" stroke-width="1.33333" stroke-linecap="round" stroke-linejoin="round"/>
<path d="M14.667 13.9998V12.6664C14.6666 12.0756 14.4699 11.5016 14.1079 11.0346C13.7459 10.5677 13.2391 10.2341 12.667 10.0864" stroke="#0D91FD" stroke-width="1.33333" stroke-linecap="round" stroke-linejoin="round"/>
<path d="M10.667 2.08643C11.2406 2.23329 11.749 2.56689 12.1121 3.03463C12.4752 3.50237 12.6722 4.07765 12.6722 4.66976C12.6722 5.26187 12.4752 5.83715 12.1121 6.30489C11.749 6.77262 11.2406 7.10623 10.667 7.25309" stroke="#0D91FD" stroke-width="1.33333" stroke-linecap="round" stroke-linejoin="round"/>
</svg>
