<svg width="84" height="84" viewBox="0 0 84 84" fill="none" xmlns="http://www.w3.org/2000/svg">
<rect width="80" height="80" rx="40" fill="#0A91FF" fill-opacity="0.1"/>
<path d="M53.333 26.6667H26.6663C24.8254 26.6667 23.333 28.1591 23.333 30.0001V50.0001C23.333 51.841 24.8254 53.3334 26.6663 53.3334H53.333C55.174 53.3334 56.6663 51.841 56.6663 50.0001V30.0001C56.6663 28.1591 55.174 26.6667 53.333 26.6667Z" stroke="#0A91FF" stroke-width="3.33333" stroke-linecap="round" stroke-linejoin="round"/>
<path d="M56.6663 31.6667L41.7163 41.1667C41.2018 41.4891 40.6069 41.6601 39.9997 41.6601C39.3925 41.6601 38.7976 41.4891 38.283 41.1667L23.333 31.6667" stroke="#0A91FF" stroke-width="3.33333" stroke-linecap="round" stroke-linejoin="round"/>
<rect x="52" y="52" width="32" height="32" rx="16" fill="#DCFCE7"/>
<path d="M68.0003 76.3334C72.6027 76.3334 76.3337 72.6025 76.3337 68.0001C76.3337 63.3977 72.6027 59.6667 68.0003 59.6667C63.398 59.6667 59.667 63.3977 59.667 68.0001C59.667 72.6025 63.398 76.3334 68.0003 76.3334Z" stroke="#16A34A" stroke-width="1.66667" stroke-linecap="round" stroke-linejoin="round"/>
<path d="M65.5 67.9999L67.1667 69.6666L70.5 66.3333" stroke="#16A34A" stroke-width="1.66667" stroke-linecap="round" stroke-linejoin="round"/>
</svg>
